<?xml version="1.0" encoding="UTF-8" standalone="no"?>
<svg
   width="15.999997pt"
   height="15.999888pt"
   viewBox="0 0 15.999997 15.999888"
   version="1.1"
   id="svg66"
   sodipodi:docname="Demucs_black.svg"
   inkscape:version="1.3 (0e150ed6c4, 2023-07-21)"
   xmlns:inkscape="http://www.inkscape.org/namespaces/inkscape"
   xmlns:sodipodi="http://sodipodi.sourceforge.net/DTD/sodipodi-0.dtd"
   xmlns="http://www.w3.org/2000/svg"
   xmlns:svg="http://www.w3.org/2000/svg">
  <defs
     id="defs66" />
  <sodipodi:namedview
     id="namedview66"
     pagecolor="#ffffff"
     bordercolor="#999999"
     borderopacity="1"
     inkscape:showpageshadow="2"
     inkscape:pageopacity="0"
     inkscape:pagecheckerboard="0"
     inkscape:deskcolor="#d1d1d1"
     inkscape:document-units="pt"
     inkscape:zoom="28.538388"
     inkscape:cx="8.72509"
     inkscape:cy="12.526987"
     inkscape:window-width="1920"
     inkscape:window-height="1057"
     inkscape:window-x="-8"
     inkscape:window-y="-8"
     inkscape:window-maximized="1"
     inkscape:current-layer="#253548ff" />
  <g
     id="#e0e7efff"
     transform="translate(-197.54688,-180.97026)" />
  <g
     id="#253548ff"
     transform="translate(-202.30414,-179.78094)">
    <path
       fill="#000000"
       opacity="1"
       d="m 204.4852,179.92699 c 7.4e-4,-0.11567 0.15245,-0.081 0.20178,-0.0175 0.13222,0.142 0.34781,0.27007 0.3224,0.4956 -0.001,0.58217 -2.4e-4,1.16434 -0.001,1.74625 0.0111,0.11593 -0.0989,0.22553 -0.21115,0.21769 -0.60854,0.002 -1.21757,0.002 -1.82611,0.001 -0.12507,0.007 -0.20548,-0.12479 -0.18822,-0.24224 0.0126,-0.73555 -0.0158,-1.47288 0.0163,-2.20743 0.1226,0.007 0.18896,0.1301 0.27554,0.20326 0.0525,0.0615 0.13295,0.11618 0.13616,0.20578 -2.5e-4,0.51661 -0.009,1.03348 -0.002,1.55034 0.12629,0.021 0.25456,0.0124 0.38209,0.0111 0.0185,-0.44422 -0.002,-0.88946 0.006,-1.33368 -0.009,-0.28247 0.52073,-0.29083 0.50346,-0.001 0.006,0.44118 -0.0118,0.88338 0.009,1.32405 0.12112,0.0129 0.24297,0.017 0.36483,0.0109 0.0244,-0.65406 0.003,-1.30963 0.0113,-1.96394 z"
       id="path2"
       style="stroke-width:0.0249874" />
    <path
       fill="#000000"
       opacity="1"
       d="m 215.77896,180.19599 c -0.005,-0.099 0.095,-0.1701 0.18549,-0.16048 0.5343,0.003 1.06884,-0.002 1.60337,-10e-4 0.0755,-0.003 0.15343,0.017 0.20474,0.0777 0.13271,0.1425 0.26641,0.28399 0.40109,0.42447 0.058,0.0653 0.12457,0.13491 0.13049,0.22831 -0.0237,0.02 -0.0469,0.04 -0.0698,0.0602 -0.241,-0.1539 -0.38974,-0.42347 -0.62284,-0.58951 -0.12926,-0.009 -0.25926,0.005 -0.38876,0.001 0.33103,0.36449 0.62827,0.76087 0.96992,1.11574 0.17193,0.15668 0.0787,0.41233 0.0999,0.61786 0.0101,0.203 -0.26049,0.20553 -0.37889,0.12403 -0.0641,-0.14529 -0.0202,-0.31488 -0.0353,-0.47029 -0.56833,-0.004 -1.13666,-0.003 -1.705,0 -0.008,0.15971 0.018,0.32373 -0.0269,0.47965 -0.12556,0.0592 -0.36335,0.0494 -0.36828,-0.13567 -0.003,-0.59052 0.003,-1.18155 7.4e-4,-1.77232 m 0.53996,0.36929 c -0.11174,0.0167 -0.20424,0.12175 -0.20276,0.23895 -0.0104,0.15415 0.13937,0.31639 0.29378,0.27767 0.10114,-0.0157 0.16231,-0.11796 0.18205,-0.21313 0.0281,-0.1582 -0.11692,-0.32044 -0.27307,-0.30349 m 0.78861,0.022 c -0.12111,0.0445 -0.20029,0.18604 -0.15441,0.31487 0.0434,0.18301 0.32856,0.27059 0.41934,0.0808 0.12605,-0.18149 -0.0656,-0.43891 -0.26493,-0.39562 z"
       id="path3"
       style="stroke-width:0.0249874" />
    <g
       id="g74"
       transform="matrix(0.02466725,0,0,0.02531169,196.99115,175.17017)">
      <path
         fill="#000000"
         opacity="1"
         d="m 593.60411,182.55998 c 3.3,-1.6 6.85,1.89 6.61,5.25 0.1,25.34 -0.71,50.68 -0.7,76.03 0.19,1.9 -1.02,3.35 -2.18,4.68 -3.87,-0.14 -7.98,0.06 -11.55,-1.66 -2.52,-1.69 -1.7,-5.08 -1.53,-7.62 2.12,-0.35 4.24,-0.7 6.39,-0.9 -0.12,-18.05 0.04,-36.11 -0.19,-54.16 -5.3,-0.19 -11.3,1.28 -15.96,-1.99 -3.82,-2.38 -4.38,-9.61 0.49,-11.1 5.27,-0.58 10.59,0.06 15.88,-0.42 0.31,-2.81 0.1,-6.3 2.74,-8.11 z"
         id="path1" />
      <path
         fill="#000000"
         opacity="1"
         d="m 579.23411,210.30998 c 3.74,-0.84 7.13,2.86 7.06,6.45 0.03,6.35 0.34,12.75 -0.16,19.09 -3.47,4.05 -12.61,1.13 -11.68,-5.02 0.83,-6.71 -3.44,-17.3 4.78,-20.52 z"
         id="path6" />
    </g>
    <g
       id="g68"
       transform="matrix(0.02466725,0,0,0.02531169,195.847,191.66692)">
      <path
         fill="#000000"
         opacity="1"
         d="m 315.47,122.58 c 6.7,-1.26 13.91,4.45 13.74,11.38 0.86,6.33 -2.02,13.74 -8.43,15.9 -8.57,2.72 -18.01,-5.06 -17.71,-13.85 -0.19,-6.81 5.66,-12.94 12.4,-13.43 z"
         id="path5" />
      <path
         fill="#000000"
         opacity="1"
         d="m 387.37,124.51 c 7.16,-2.36 14.15,4.34 13.28,11.51 0.3,9.51 -13.32,12.93 -19.21,6.52 -6.59,-5.46 -2.38,-17.21 5.93,-18.03 z"
         id="path7" />
      <path
         fill="#000000"
         opacity="1"
         d="m 341.15,124.65 c 9.88,-2.43 14.48,10.53 10.22,17.73 -6,8.05 -22.28,3.32 -20.99,-7.39 0.08,-5.89 5.4,-9.58 10.77,-10.34 z"
         id="path9" />
      <path
         fill="#000000"
         opacity="1"
         d="m 269.36,127.35 c 10.06,-1.77 9.98,17.97 -0.36,15.94 -9.6,-0.32 -9.8,-16.3 0.36,-15.94 z"
         id="path10" />
      <path
         fill="#000000"
         opacity="1"
         d="m 293.47,127.5 c 6.62,-1.42 7.44,7.73 6.09,12.2 -3.47,7.13 -14.97,5.63 -19.01,-0.23 -0.91,-3.64 -1.69,-9.44 2.66,-11.12 3.38,-0.67 6.85,-0.49 10.26,-0.85 z"
         id="path11" />
      <path
         fill="#000000"
         opacity="1"
         d="m 370.44,127.58 c 7.5,1.03 7.12,15.17 -0.51,16.28 -4.51,0.88 -11.11,0.04 -12.67,-5.09 -0.86,-3.32 -1.07,-8.16 2.33,-10.12 3.54,-0.83 7.26,-0.53 10.85,-1.07 z"
         id="path12" />
    </g>
    <g
       id="g76"
       transform="matrix(0.02466725,0,0,0.02531169,196.93247,175.23037)">
      <g
         id="g69"
         transform="translate(-42.815331,88.009292)">
        <path
           fill="#000000"
           opacity="1"
           d="m 721.05,103.98 c 2.03,-1.68 4.42,0.75 5.73,2.27 5.26,6.58 10.52,13.16 15.9,19.65 3.64,-3.72 7.12,-7.64 11.3,-10.79 7.92,5.86 13.84,14.42 19.19,22.61 -3.02,0.77 -6.13,0.55 -9.18,0.19 -32.25,-1.05 -64.58,0.38 -96.79,-0.65 6.58,-7.47 13.4,-14.78 20.79,-21.47 4.47,3.01 7.54,7.49 10.99,11.53 7.55,-7.57 14.69,-15.59 22.07,-23.34 z"
           id="path4" />
        <path
           fill="#000000"
           opacity="1"
           d="m 728.24,141.37 c 1.39,0.01 2.8,0.01 4.2,-0.01 4.38,6.49 1.02,15.23 1.89,22.66 -1.77,6.2 6.43,10.26 3.06,16.36 -3.97,2.34 -10.36,2.53 -11.99,-2.7 -1.78,-4 2.97,-6.72 2.24,-10.67 0.46,-8.51 -1.58,-17.35 0.6,-25.64 z"
           id="path13" />
      </g>
    </g>
    <g
       id="g75"
       transform="matrix(0.02466725,0,0,0.02531169,197.48988,175.01965)">
      <path
         fill="#000000"
         opacity="1"
         d="m 479.22411,212.14998 c 6.14,-2.83 11.68,2.68 16.3,6 4.01,3.28 11.43,6.36 8.38,12.8 -8.2,-2.02 -12.89,-11.07 -21.07,-13.02 -8.58,1.5 -14.37,9.34 -22.29,12.52 -3.22,0.95 -4.56,-4.23 -1.74,-5.6 6.64,-4.45 13.1,-9.41 20.42,-12.7 z"
         id="path8" />
      <path
         fill="#000000"
         opacity="1"
         d="m 466.19411,245.14998 c 6.13,-3.4 12.12,-9.55 19.66,-8.33 5.95,2.58 10.88,7.05 16.11,10.82 2.89,1.74 2.51,5.38 1.56,8.12 -7.56,-2.44 -12.35,-9.96 -19.78,-12.71 -9.97,0.41 -15.78,12.58 -26.07,12.07 -2.14,-5.83 4.95,-7.39 8.52,-9.97 z"
         id="path14" />
    </g>
    <path
       fill="#000000"
       opacity="1"
       d="m 210.20866,182.72238 c 0.01,-0.30652 0.54539,-0.29387 0.56216,0.005 0.006,1.77005 0.005,3.54035 0.0111,5.31065 -9.9e-4,0.0815 0.022,0.22679 -0.0974,0.22249 -0.15368,-0.001 -0.31623,0.0288 -0.4635,-0.0268 -0.0402,-0.1377 -0.0188,-0.28223 -0.0224,-0.42321 0.001,-1.69589 -0.002,-3.39202 0.0101,-5.08791 z"
       id="path18"
       style="stroke-width:0.0249874" />
    <g
       id="g73"
       transform="matrix(0.02466725,0,0,0.02531169,197.31386,175.23037)">
      <path
         fill="#000000"
         opacity="1"
         d="m 233.59833,320.92916 c 1.71,-1.73 3.91,-4.8 6.49,-2.49 6.41,4.84 11.59,11.1 17.53,16.49 4.77,4.94 10.59,9.05 14.08,15.09 -1.11,10.11 -1.45,20.37 -0.31,30.51 1.01,4.11 -2.71,6.62 -5.34,9 -8.48,6.87 -16.35,14.49 -24.85,21.35 -4.11,1.87 -8.15,-2.18 -7.85,-6.29 0.22,-27.88 -0.16,-55.77 0.25,-83.66 z"
         id="path16" />
      <path
         fill="#000000"
         opacity="1"
         d="m 289.20833,349.70916 c 5.56,-3.59 9.69,4.01 9.22,8.8 -0.39,7.64 1.32,16.03 -2.3,23.07 -2.13,3.71 -6.79,2.28 -8.6,-0.94 5.31,-9.72 2.15,-20.64 1.68,-30.93 z"
         id="path19" />
      <path
         fill="#000000"
         opacity="1"
         d="m 276.21833,355.71916 c 1.79,0.03 3.57,0.06 5.36,0.14 3.57,6.53 4.18,15.5 0.68,22.15 -1.83,-0.03 -3.67,-0.06 -5.5,-0.03 -1.76,-7.22 -0.94,-14.89 -0.54,-22.26 z"
         id="path20" />
    </g>
    <g
       id="g66"
       transform="matrix(0.02466725,0,0,0.02531169,194.52683,176.64524)">
      <path
         fill="#000000"
         opacity="1"
         d="m 907.77,264.03 c 0.59,-4.85 7.84,-3.19 7.73,1.14 0.68,10.96 -0.33,21.99 0.25,32.97 0.03,1.36 1.5,1.8 2.45,2.43 6.1,2.99 10.48,9.59 10.41,16.45 0.58,7.11 -5.14,13.77 -12.06,14.94 -0.51,7.83 0.23,15.73 -1.21,23.5 -2.84,2 -7.84,0.33 -7.78,-3.45 -0.31,-6.42 0.54,-12.86 -0.14,-19.27 -5.83,-3.02 -11.35,-7.95 -12.45,-14.73 -0.77,-8.02 4.69,-15.89 12.52,-17.96 0.68,-11.99 -0.39,-24.04 0.28,-36.02 z"
         id="path15" />
      <path
         fill="#000000"
         opacity="1"
         d="m 881.07,291.94 c -2.9,-3.76 1.17,-9.11 5.64,-7.67 4.39,3.14 8.41,7.17 10.97,11.96 0.34,3.01 -2.75,4.76 -4.58,6.62 -3.68,-4.01 -8.28,-7.01 -12.03,-10.91 z"
         id="path17" />
      <path
         fill="#000000"
         opacity="1"
         d="m 941.68,305.66 c 3.82,-3.35 8.78,0.8 8.89,5.09 1.01,12.01 -3.81,24.5 -12.38,32.93 -3.07,0.26 -5.55,-1.43 -7.75,-3.31 -1.26,-7.19 4.76,-12.41 7.41,-18.48 2.69,-5.04 1.72,-11.05 3.83,-16.23 z"
         id="path21" />
      <path
         fill="#000000"
         opacity="1"
         d="m 871.78,312.96 c 0.02,-3.86 5.87,-6.66 8.18,-2.95 3.76,5.58 5.26,12.38 9.15,17.92 2.62,4.34 7.95,9.77 3.11,14.54 -2.78,0.13 -6.12,0.92 -8.22,-1.45 -7.33,-7.34 -12.29,-17.58 -12.22,-28.06 z"
         id="path22" />
    </g>
    <path
       fill="#000000"
       opacity="1"
       d="m 211.184,183.81813 c 0.16355,-0.0468 0.37642,0.0602 0.3747,0.25134 -0.002,1.36531 0.0106,2.73113 0.009,4.09644 0.004,0.13289 -0.16108,0.0891 -0.24347,0.0967 -0.11322,-0.008 -0.32338,0.0476 -0.3298,-0.12783 -0.01,-1.34861 0.001,-2.69797 2.5e-4,-4.04658 -0.009,-0.12175 0.0636,-0.25312 0.18895,-0.27007 z"
       id="path23"
       style="stroke-width:0.0249874" />
    <path
       fill="#000000"
       opacity="1"
       d="m 209.51872,184.46914 c -0.0271,-0.27387 0.38826,-0.34829 0.49877,-0.1258 0.054,0.13567 0.022,0.28704 0.0321,0.42954 -0.007,1.15498 0.0121,2.30995 -0.009,3.46467 -0.1596,0.0448 -0.32955,0.0326 -0.49137,0.006 -0.0407,-0.0969 -0.0276,-0.20426 -0.0289,-0.30677 0.0128,-1.15599 -0.0101,-2.31197 -0.001,-3.46796 z"
       id="path24"
       style="stroke-width:0.0249874" />
    <path
       fill="#000000"
       opacity="1"
       d="m 212.56068,184.92374 c 0.0392,-0.21034 0.32783,-0.25261 0.47336,-0.13365 0.0952,0.0719 0.0878,0.20452 0.0861,0.31235 -0.0239,0.99576 -0.0133,1.99152 -0.019,2.98729 0.002,0.0524 -0.01,0.10327 -0.0259,0.15237 -0.14258,0.0261 -0.29033,0.0266 -0.43365,0.0101 -0.0787,-0.009 -0.0952,-0.0975 -0.092,-0.16428 0.0141,-1.05448 -7.4e-4,-2.10972 0.0111,-3.16421 z"
       id="path25"
       style="stroke-width:0.0249874" />
    <path
       fill="#000000"
       opacity="1"
       d="m 207.60898,185.33986 c 0.15367,-0.0602 0.38061,0.004 0.40577,0.19187 0.005,0.85275 0.005,1.70575 0.002,2.55876 -0.001,0.0645 -0.008,0.17389 -0.0947,0.16756 -0.12654,0.007 -0.25506,0.01 -0.38086,-0.007 -0.0814,-0.005 -0.0666,-0.10352 -0.0725,-0.16301 0.004,-0.83452 5e-4,-1.6693 0.002,-2.50383 -0.01,-0.10124 0.0343,-0.21667 0.13839,-0.24426 z"
       id="path26"
       style="stroke-width:0.0249874" />
    <path
       fill="#000000"
       opacity="1"
       d="m 216.7718,186.31287 c 0.19783,-0.0686 0.40405,0.024 0.57845,0.11694 0.10829,0.0699 0.23804,0.14098 0.27233,0.27843 -0.0738,0.0643 -0.16774,0.22097 -0.27282,0.12681 -0.11569,-0.10454 -0.24051,-0.21212 -0.39665,-0.24249 -0.41984,0.0382 -0.86015,0.38676 -0.82068,0.85731 0.094,0.0309 0.20474,0.0597 0.2928,-0.004 0.16823,-0.10606 0.31549,-0.24426 0.48693,-0.3455 0.21756,0.0959 0.38777,0.27286 0.59818,0.38195 0.073,0.0367 0.15146,-0.007 0.21485,-0.0448 0.0146,-0.15618 -0.0602,-0.30653 -0.0343,-0.46169 0.0385,-0.0764 0.15516,-0.0329 0.18057,0.0377 0.0639,0.14807 0.0424,0.31791 0.0345,0.47535 -0.41761,0.33007 -0.8118,0.6905 -1.20401,1.0517 -0.0964,0.0848 -0.15096,0.22578 -0.28688,0.25438 -0.039,-0.0263 -0.077,-0.0537 -0.11371,-0.0823 -0.0237,-0.16275 0.14948,-0.23008 0.26394,-0.2883 0.18303,-0.14731 0.3446,-0.32171 0.52171,-0.47662 0.11002,-0.0833 0.0454,-0.23793 0.0572,-0.35563 -0.14579,0.0425 -0.29971,0.0489 -0.445,0.002 -0.007,0.14276 0.0491,0.35057 -0.13468,0.39638 -0.14455,-0.058 -0.23459,-0.1949 -0.35644,-0.28703 -0.0883,-0.0863 -0.21116,-0.14504 -0.26641,-0.26021 -0.0437,-0.29513 0.0619,-0.61153 0.27899,-0.812 0.15787,-0.14554 0.34805,-0.25438 0.55106,-0.31816 z"
       id="path27"
       style="stroke-width:0.0249874" />
    <path
       fill="#000000"
       opacity="1"
       d="m 206.78139,185.72182 c 9.9e-4,-0.23616 0.33967,-0.29969 0.46868,-0.13339 0.10311,0.11466 0.0597,0.28374 0.0691,0.42473 -0.0151,0.74163 0.0256,1.48604 -0.02,2.22591 -0.14653,0.0286 -0.29946,0.0314 -0.44673,0.008 -0.0836,-0.0142 -0.0777,-0.11644 -0.0802,-0.1825 0.0163,-0.78086 -0.009,-1.56224 0.009,-2.3431 z"
       id="path28"
       style="stroke-width:0.0249874" />
    <path
       fill="#000000"
       opacity="1"
       d="m 211.92525,185.62006 c 0.11273,-0.0369 0.25605,-0.0372 0.34312,0.057 0.09,0.0856 0.0755,0.22173 0.0794,0.33588 -0.002,0.70873 0.0123,1.41796 2.5e-4,2.12644 0.006,0.1463 -0.16478,0.11491 -0.25876,0.12099 -0.10508,-0.004 -0.2928,0.0367 -0.30341,-0.12074 -0.008,-0.75074 10e-4,-1.502 -2.4e-4,-2.25299 -0.006,-0.1053 0.0311,-0.23211 0.13961,-0.26654 z"
       id="path29"
       style="stroke-width:0.0249874" />
    <path
       fill="#000000"
       opacity="1"
       d="m 208.88181,185.81016 c 0.12629,-0.18022 0.49112,-0.12606 0.49211,0.12478 0.006,0.69228 0.006,1.3848 0.005,2.07733 7.4e-4,0.0762 -0.002,0.1539 -0.0289,0.22604 -0.13788,0.0395 -0.28589,0.0344 -0.42625,0.0121 -0.0846,-0.0139 -0.0792,-0.11846 -0.0848,-0.18554 0.005,-0.66722 0.009,-1.33443 0.01,-2.00165 0.005,-0.0843 -0.007,-0.17617 0.0335,-0.25311 z"
       id="path30"
       style="stroke-width:0.0249874" />
    <path
       fill="#000000"
       opacity="1"
       d="m 213.43045,185.77016 c 0.14751,-0.0332 0.3409,0.0691 0.32635,0.24325 -0.006,0.70898 -0.002,1.41796 -0.0146,2.12694 0.006,0.0691 -0.0518,0.13187 -0.12062,0.12301 -0.11002,0 -0.22472,0.0152 -0.33153,-0.0144 -0.0735,-0.0483 -0.0553,-0.15871 -0.0619,-0.23641 0.0148,-0.67912 -0.006,-1.35899 0.0121,-2.0381 -0.009,-0.11466 0.0844,-0.19794 0.19019,-0.20427 z"
       id="path31"
       style="stroke-width:0.0249874" />
    <path
       fill="#000000"
       opacity="1"
       d="m 213.88605,186.89881 c 0.016,-0.21287 0.31204,-0.25109 0.44105,-0.11947 0.1115,0.12909 0.0696,0.31665 0.0775,0.47409 -0.0151,0.32804 0.0215,0.66038 -0.0227,0.98538 -0.13715,0.0339 -0.28367,0.039 -0.42181,0.009 -0.0836,-0.0157 -0.0792,-0.1177 -0.0829,-0.18477 0.005,-0.38803 -0.001,-0.77631 0.009,-1.16409 z"
       id="path35"
       style="stroke-width:0.0249874" />
    <path
       fill="#000000"
       opacity="1"
       d="m 206.12993,186.95374 c 0.0163,-0.27868 0.50962,-0.26603 0.50444,0.0187 5e-4,0.38929 0.009,0.77859 2.5e-4,1.16788 10e-4,0.041 -0.0252,0.0734 -0.0434,0.10707 -0.12803,0.02 -0.2595,0.024 -0.38753,0.003 -0.0831,-0.0144 -0.0816,-0.11922 -0.0826,-0.18604 0.006,-0.37006 9.9e-4,-0.74062 0.009,-1.11042 z"
       id="path36"
       style="stroke-width:0.0249874" />
    <g
       id="g72"
       transform="matrix(0.02466725,0,0,0.02531169,197.31386,175.23037)">
      <path
         fill="#000000"
         opacity="1"
         d="m 272.6601,437.73178 c 5.45,-0.52 10.78,3.83 10.19,9.56 -0.13,21.33 0.21,42.69 -0.25,64 -2.66,10.65 -20.52,8.6 -21.61,-1.99 -0.25,-20.34 0.01,-40.7 -0.09,-61.04 -0.49,-6.37 5.96,-10.67 11.76,-10.53 z"
         id="path32" />
      <path
         fill="#000000"
         opacity="1"
         d="m 300.8101,459.67178 c 1.81,-5.33 9.69,-2.22 9.04,2.77 -0.06,9.02 3,19.51 -2.26,27.51 -4.04,0.53 -7.57,-2.56 -7.48,-6.65 -0.04,-7.86 -0.48,-15.84 0.7,-23.63 z"
         id="path33" />
      <path
         fill="#000000"
         opacity="1"
         d="m 229.8001,468.66178 c 2.02,-4.69 8.14,-2.21 8.82,2.05 0.65,6.62 0.4,13.32 0.14,19.96 -3.33,2.14 -8.61,0.56 -9.02,-3.72 -0.34,-6.07 -0.48,-12.24 0.06,-18.29 z"
         id="path34" />
      <path
         fill="#000000"
         opacity="1"
         d="m 247.8701,474.84178 c 3.33,-1.03 7.66,-0.52 8.53,3.5 0.53,7.77 0.34,15.61 0.29,23.41 -3.55,0.73 -8.18,0.08 -8.82,-4.24 -0.5,-7.53 -0.39,-15.13 0,-22.67 z"
         id="path37" />
    </g>
    <path
       fill="#000000"
       opacity="1"
       d="m 208.16448,187.15193 c -0.0252,-0.23818 0.30341,-0.31589 0.45265,-0.18427 0.10089,0.0896 0.0752,0.24021 0.0812,0.3617 -0.009,0.30248 0.0121,0.60672 -0.0192,0.90819 -0.16231,0.0223 -0.36162,0.0666 -0.5042,-0.0301 -0.0367,-0.34931 -0.002,-0.70418 -0.0104,-1.0555 z"
       id="path38"
       style="stroke-width:0.0249874" />
    <path
       fill="#000000"
       opacity="1"
       d="m 214.71142,187.18534 c 0.18081,-0.0625 0.39813,0.0681 0.40207,0.27058 -0.004,0.2473 0.005,0.49611 -0.007,0.7429 -0.052,0.0997 -0.1887,0.0544 -0.27874,0.0656 -0.092,-0.007 -0.25333,0.0296 -0.2738,-0.10049 -0.0237,-0.2516 -0.002,-0.50598 -0.002,-0.75884 -0.0106,-0.10328 0.0644,-0.19541 0.1596,-0.21971 z"
       id="path39"
       style="stroke-width:0.0249874" />
    <path
       fill="#000000"
       opacity="1"
       d="m 205.42617,187.6574 c -4.9e-4,-0.30677 0.54614,-0.30348 0.54836,5.1e-4 4.9e-4,0.19566 0.017,0.39461 -0.0185,0.58824 -0.17095,0.0106 -0.34757,0.0306 -0.51481,-0.0175 -0.0414,-0.18731 -0.0128,-0.3812 -0.015,-0.57129 z"
       id="path40"
       style="stroke-width:0.0249874" />
    <path
       fill="#000000"
       opacity="1"
       d="m 205.49721,188.64051 c 0.15368,-0.0195 0.31303,-0.0208 0.46474,0.016 0.017,0.0693 0.0281,0.15136 -0.022,0.21008 -0.1332,0.17313 -0.43686,0.10479 -0.50666,-0.0974 -0.0188,-0.0524 4.9e-4,-0.12605 0.0639,-0.12858 z"
       id="path41"
       style="stroke-width:0.0249874" />
    <path
       fill="#000000"
       opacity="1"
       d="m 206.14917,188.64886 c 0.14899,-0.0248 0.30809,-0.0395 0.45388,0.009 0.0525,0.20503 0.0382,0.4341 0.0113,0.64343 -0.0836,0.21464 -0.47311,0.16857 -0.48791,-0.0727 0.002,-0.19262 -0.0269,-0.39208 0.0227,-0.57989 z"
       id="path42"
       style="stroke-width:0.0249874" />
    <path
       fill="#000000"
       opacity="1"
       d="m 206.85786,188.64304 c 0.14455,-0.0243 0.29453,-0.0223 0.43784,0.01 0.0607,0.38828 0.007,0.78998 0.0207,1.18358 0.0178,0.17541 -0.16995,0.30753 -0.32758,0.25969 -0.12111,-0.023 -0.21978,-0.13136 -0.2114,-0.26197 -0.004,-0.3369 9.9e-4,-0.67405 -0.001,-1.0112 0.005,-0.0651 -0.005,-0.17187 0.0819,-0.17997 z"
       id="path43"
       style="stroke-width:0.0249874" />
    <path
       fill="#000000"
       opacity="1"
       d="m 207.50439,188.64633 c 0.1443,-0.0215 0.29132,-0.0205 0.43636,-0.008 0.0545,-0.002 0.075,0.061 0.074,0.10758 0.0111,0.52319 -0.001,1.04664 0.003,1.57008 -0.003,0.0878 0.0106,0.18377 -0.0338,0.264 -0.10779,0.20478 -0.48348,0.1577 -0.50814,-0.0863 -0.0146,-0.51459 -0.003,-1.02968 -0.007,-1.54427 0.003,-0.10175 -0.0111,-0.20932 0.035,-0.30323 z"
       id="path44"
       style="stroke-width:0.0249874" />
    <path
       fill="#000000"
       opacity="1"
       d="m 208.20395,188.65595 c 0.15022,-0.0534 0.32068,-0.0392 0.47386,-0.003 0.0348,0.13517 0.0274,0.27945 -0.002,0.41486 -0.1041,0.23439 -0.53183,0.15263 -0.51234,-0.11896 0.005,-0.0957 -0.0269,-0.21566 0.0407,-0.29311 z"
       id="path45"
       style="stroke-width:0.0249874" />
    <path
       fill="#000000"
       opacity="1"
       d="m 208.942,188.63165 c 0.13591,-0.002 0.33424,-0.0585 0.42501,0.0726 0.0202,0.3083 0.0106,0.62039 0.004,0.9297 -0.0382,0.27109 -0.49088,0.24477 -0.51802,-0.0192 -0.0106,-0.25565 -0.006,-0.51206 -0.0101,-0.76771 0.003,-0.0795 -0.007,-0.20679 0.0989,-0.2154 z"
       id="path46"
       style="stroke-width:0.0249874" />
    <path
       fill="#000000"
       opacity="1"
       d="m 209.54955,188.64658 c 0.16083,-0.0218 0.32635,-0.0332 0.48594,0.004 0.0229,0.15744 0.0158,0.31691 0.016,0.47586 -0.006,0.80162 0,1.6035 -0.005,2.40537 0.007,0.13264 -0.0947,0.27185 -0.23138,0.26679 -0.15195,0.02 -0.31475,-0.10201 -0.30439,-0.2678 -0.001,-0.85199 0.0121,-1.70424 0.0104,-2.55623 0.003,-0.1096 -0.0111,-0.2235 0.0289,-0.32804 z"
       id="path47"
       style="stroke-width:0.0249874" />
    <path
       fill="#000000"
       opacity="1"
       d="m 210.29771,188.63089 c 0.15343,-0.0111 0.31179,-0.0203 0.463,0.0147 0.0237,0.0995 0.0192,0.20224 0.0185,0.30374 -0.004,1.32988 -0.002,2.66001 -0.01,3.98938 -0.008,0.31867 -0.54267,0.33057 -0.55599,0.0111 -0.0143,-1.39214 -0.0133,-2.78504 -0.0133,-4.17718 -0.003,-0.0638 0.0264,-0.13846 0.0977,-0.14175 z"
       id="path48"
       style="stroke-width:0.0249874" />
    <path
       fill="#000000"
       opacity="1"
       d="m 211.03304,188.65165 c 0.15047,-0.0377 0.30711,-0.0258 0.46004,-0.0162 0.0913,0.004 0.0713,0.12225 0.077,0.1868 -0.007,0.91172 -0.0111,1.8232 -0.0109,2.73493 0.001,0.10301 -0.008,0.22653 -0.10336,0.28602 -0.16453,0.12681 -0.46177,0.0187 -0.45461,-0.20984 -0.0106,-0.92008 0.001,-1.84016 -0.004,-2.75998 -0.001,-0.0757 5e-4,-0.15365 0.036,-0.22173 z"
       id="path49"
       style="stroke-width:0.0249874" />
    <path
       fill="#000000"
       opacity="1"
       d="m 212.64406,188.6395 c 0.12827,-0.0162 0.26172,-0.022 0.38924,0.004 0.0861,0.024 0.0654,0.13541 0.0708,0.20527 -0.007,0.63254 0.0197,1.26483 0.0143,1.89762 -0.007,0.1301 0.0303,0.28096 -0.055,0.39208 -0.13764,0.18224 -0.49039,0.11036 -0.5042,-0.13719 -2.5e-4,-0.73454 -0.005,-1.46934 -0.007,-2.20389 -0.007,-0.0658 0.0185,-0.14807 0.0918,-0.15794 z"
       id="path50"
       style="stroke-width:0.0249874" />
    <path
       fill="#000000"
       opacity="1"
       d="m 213.35768,188.63418 c 0.12827,0.002 0.38851,-0.0678 0.38629,0.13668 0.005,0.27033 0.0116,0.54092 0.007,0.81124 -7.4e-4,0.20781 -0.27677,0.28603 -0.42156,0.17288 -0.11939,-0.0817 -0.0992,-0.2483 -0.0992,-0.37562 0.0123,-0.2268 -0.0165,-0.45612 0.019,-0.68089 0.004,-0.0574 0.0656,-0.0595 0.10804,-0.0643 z"
       id="path51"
       style="stroke-width:0.0249874" />
    <path
       fill="#000000"
       opacity="1"
       d="m 213.92281,188.65165 c 0.14578,-0.0486 0.30686,-0.0375 0.45461,-10e-4 0.0279,0.18149 0.0387,0.37132 0.006,0.55255 -0.0913,0.24528 -0.51678,0.16225 -0.50815,-0.102 0.008,-0.14706 -0.0316,-0.32019 0.0474,-0.44928 z"
       id="path52"
       style="stroke-width:0.0249874" />
    <path
       fill="#000000"
       opacity="1"
       d="m 214.58561,188.64861 c 0.1337,-0.0397 0.27504,-0.0309 0.41244,-0.0238 0.10286,0.005 0.14233,0.13187 0.11939,0.21995 -0.0303,0.16807 -0.2188,0.28046 -0.37568,0.21667 -0.16971,-0.0428 -0.25555,-0.26375 -0.15615,-0.41283 z"
       id="path53"
       style="stroke-width:0.0249874" />
    <path
       fill="#000000"
       opacity="1"
       d="m 211.81992,188.64836 c 0.14653,-0.02 0.29601,-0.0213 0.44278,-0.005 0.0799,7.6e-4 0.0784,0.0952 0.0831,0.15516 0.008,0.31994 4.9e-4,0.64014 -9.9e-4,0.96033 -0.004,0.0848 0.005,0.18553 -0.0649,0.24679 -0.15393,0.18376 -0.52566,0.0661 -0.49433,-0.19591 0.019,-0.38575 -0.0424,-0.78315 0.0343,-1.1613 z"
       id="path54"
       style="stroke-width:0.0249874" />
    <path
       fill="#000000"
       opacity="1"
       d="m 216.09153,190.20338 c 0.0111,-0.38802 0.35546,-0.7148 0.73015,-0.70974 0.37716,-0.0256 0.72546,0.2921 0.77579,0.67076 0.0592,0.10479 0.13986,0.20528 0.12383,0.33741 -0.0151,0.29108 0.0355,0.5928 -0.0422,0.87604 -0.14751,0.17212 -0.35002,0.0134 -0.44697,-0.12985 -0.0417,0.001 -0.0829,0.002 -0.12407,0.003 -0.11298,0.079 -0.0318,0.24856 -0.14011,0.32449 -0.17218,0.007 -0.3446,0.002 -0.51653,0.003 -0.096,0.006 -0.14135,-0.0949 -0.1749,-0.16984 -0.18031,0.0281 -0.30858,-0.15339 -0.27948,-0.32526 0.0281,-0.29311 -0.0673,-0.62267 0.0945,-0.88009 m 0.16996,0.0327 c 0.19216,0.13845 0.11223,0.40346 0.12506,0.60621 0.31845,-0.005 0.63716,0.006 0.95561,0.004 0.0402,-0.19996 -0.0678,-0.447 0.0878,-0.60545 0.0131,-0.2964 -0.24421,-0.54446 -0.51728,-0.58774 -0.32462,-0.0456 -0.6559,0.24426 -0.65121,0.58293 z"
       id="path56"
       style="stroke-width:0.0249874" />
    <g
       id="g71"
       transform="matrix(0.02466725,0,0,0.02531169,197.31386,175.23037)">
      <path
         fill="#000000"
         opacity="1"
         d="m 224.22422,567.93657 c 5.51,-15.89 21.86,-27.85 38.93,-26.53 23.95,-0.29 42.25,24.77 38.79,47.59 0.21,8.53 -3.73,16.17 -5.89,24.19 4.28,-1.21 9.5,2.78 6.59,7.14 -3.59,1.56 -7.71,0.54 -11.41,1.86 -5.37,-1.33 -10.95,-0.48 -16.42,-0.74 -1.73,-2.44 -1.54,-5.41 -0.28,-7.99 4.88,-0.33 9.77,0.1 14.65,-0.17 6.43,-13.43 10.42,-29.39 4.49,-43.75 -4.68,-11.35 -14.96,-21.02 -27.49,-22.47 -12.77,-2.05 -25.64,4.62 -32.71,15.15 -10.24,15.47 -6.13,35.44 1.65,51.03 4.81,-0.02 9.62,-0.09 14.42,0.27 0.73,2.6 1.24,5.35 0.17,7.95 -9.36,-0.58 -19.32,1.65 -28.2,-1.93 -3.25,-4.68 2.85,-7.54 6.8,-5.88 -5.37,-14.44 -9.8,-30.66 -4.09,-45.72 z"
         id="path55" />
      <path
         fill="#000000"
         opacity="1"
         d="m 259.47422,603.12657 c 2.54,-1.65 5.94,-0.17 7.28,2.33 3.28,4.77 0.46,10.94 3.11,15.92 2.2,5.28 0.93,15.15 -6.68,14.23 -8.66,0.89 -10.52,-10.28 -8.91,-16.63 2.11,-5.16 0.01,-12.27 5.2,-15.85 z"
         id="path57" />
    </g>
    <path
       fill="#000000"
       opacity="1"
       d="m 202.763,192.25399 c 0.58906,-0.006 1.1791,5e-4 1.76865,-0.006 0.0345,0.001 0.0666,0.016 0.0994,0.0258 0.0331,0.48599 9.8e-4,0.97653 0.0143,1.46454 -0.005,0.12909 0.0237,0.26602 -0.0303,0.38828 -0.15639,0.0595 -0.31821,-0.003 -0.47805,0.006 -0.28787,7.5e-4 -0.57573,-0.002 -0.8636,-2.6e-4 -0.18994,0.0111 -0.4006,0.0661 -0.57598,-0.0342 -0.0229,-0.56647 0.005,-1.13548 -0.0136,-1.70272 -0.009,-0.0582 0.0141,-0.13288 0.0792,-0.14174 m 0.32561,0.30652 c -0.001,0.0365 -0.003,0.0729 -0.004,0.10986 0.3969,0.0132 0.79601,-0.003 1.19439,-0.001 -0.001,-0.0375 -0.003,-0.0744 -0.004,-0.11112 -0.39517,-2.5e-4 -0.79058,0.002 -1.186,0.003 m -0.0113,0.29843 c -7.4e-4,0.0175 -0.002,0.0526 -0.003,0.0701 0.40603,-0.004 0.81229,-2.5e-4 1.21832,-0.004 -2.5e-4,-0.0172 -9.9e-4,-0.0521 -0.001,-0.0694 -0.40455,-0.0147 -0.80958,0.003 -1.21412,0.003 m 0.002,0.19667 c 4.9e-4,0.0192 0.001,0.0575 0.002,0.0767 0.40233,-0.0114 0.80489,-0.0175 1.20746,-0.0154 2.5e-4,-0.0172 7.4e-4,-0.0511 9.9e-4,-0.0683 -0.40331,-0.0104 -0.80686,0.008 -1.21017,0.007 m 0.0109,0.19692 c 10e-4,0.0203 0.003,0.0607 0.004,0.081 0.39443,-0.0413 0.79083,-0.023 1.18625,-0.0314 0.002,-0.0172 0.007,-0.0519 0.009,-0.0691 -0.39961,-0.003 -0.8002,-0.009 -1.19932,0.0195 m 0.004,0.18022 c -7.4e-4,0.019 -0.002,0.0572 -0.003,0.0762 0.39541,-0.006 0.79083,0.009 1.18624,-0.003 0.004,-0.019 0.0121,-0.0567 0.016,-0.0757 -0.39986,0.006 -0.79971,-0.004 -1.19932,0.003 m -0.01,0.18326 c 0,0.0167 0,0.0506 -2.5e-4,0.0676 0.4006,0.009 0.80144,0.004 1.20204,0.004 0.002,-0.019 0.008,-0.057 0.0101,-0.0759 -0.40405,0.003 -0.8081,-0.003 -1.2119,0.005 m 0.007,0.183 c -0.002,0.016 -0.007,0.0478 -0.009,0.0638 0.40257,0.004 0.80514,0.006 1.20771,-2.5e-4 -2.5e-4,-0.0177 -9.9e-4,-0.0526 -0.001,-0.0701 -0.39911,0.003 -0.79921,-0.0132 -1.19759,0.007 z"
       id="path58"
       style="stroke-width:0.0249874" />
    <path
       fill="#000000"
       opacity="1"
       d="m 216.36892,192.67245 c 0.16034,-0.19819 0.43316,-0.33513 0.68303,-0.26172 0.0471,0.0901 -0.008,0.21413 -0.002,0.31665 0.0893,-0.0767 0.0725,-0.21591 0.14109,-0.30881 0.2304,0.12353 0.42921,0.33412 0.48521,0.60116 0.0178,0.22071 0.0113,0.47155 -0.14282,0.64443 -0.18994,0.22224 -0.50889,0.26451 -0.77875,0.21718 -0.12975,-0.06 -0.24643,-0.14808 -0.34805,-0.24932 -0.24199,-0.25008 -0.26222,-0.69101 -0.0373,-0.95957 m 0.3705,0.17921 c -0.0202,0.13643 0.095,0.25286 0.21411,0.28779 0.0937,-0.008 0.18772,-0.0737 0.23261,-0.1582 0.002,-0.0914 -0.0755,-0.15845 -0.11889,-0.23109 -0.12062,-0.0154 -0.24322,0.005 -0.32783,0.1015 m -0.0784,0.81351 c 0.016,0.002 0.0486,0.005 0.0649,0.007 0.0508,-0.15162 0.15911,-0.27767 0.19142,-0.43562 -0.13172,0.10378 -0.21362,0.26679 -0.25629,0.42878 z"
       id="path59"
       style="stroke-width:0.0249874" />
    <path
       fill="#000000"
       opacity="1"
       d="m 206.17228,179.85882 c 0.37495,-0.016 0.75088,-0.005 1.12631,-0.007 0.16749,-0.0121 0.28614,0.16554 0.28195,0.32399 0.006,0.63254 2.4e-4,1.26533 0.002,1.89812 0.0148,0.13162 -0.1073,0.2559 -0.23557,0.23996 -0.39517,-0.002 -0.79058,0.003 -1.18551,-2.6e-4 -0.14603,0.004 -0.22619,-0.15946 -0.22521,-0.29032 -0.005,-0.64216 -4.9e-4,-1.28381 0.0121,-1.92521 0.004,-0.12124 0.10829,-0.22553 0.22348,-0.2397 m 0.24372,0.19389 c 4.9e-4,0.0357 9.8e-4,0.0719 0.001,0.10833 0.21535,0.0332 0.43908,0.0339 0.65492,0.007 0.004,-0.0623 -0.0143,-0.15415 -0.095,-0.13745 -0.18649,0.009 -0.3784,-0.0233 -0.56118,0.0223 m 0.28046,1.32532 c 0.0886,0.0157 0.16231,-0.0402 0.20795,-0.11315 -0.0461,-0.063 -0.10286,-0.11744 -0.17267,-0.15136 -0.10533,0.0587 -0.1522,0.18781 -0.0353,0.26451 z"
       id="path60"
       style="stroke-width:0.0249874" />
    <path
       fill="#000000"
       opacity="1"
       d="m 214.07147,194.49063 c 0.0952,-0.11415 0.16798,-0.26121 0.30242,-0.33158 0.1369,-0.0332 0.21016,0.11239 0.27652,0.2068 0.14726,0.23767 0.33843,0.44776 0.46103,0.70063 -0.15442,0.0225 -0.30464,-0.0311 -0.45856,-0.0203 0.12481,0.24653 0.31993,0.44953 0.43143,0.70265 -0.67293,0.008 -1.3456,7.6e-4 -2.01853,0.003 -0.093,0.0126 -0.16576,-0.0524 -0.22521,-0.11593 0.30366,-0.21313 0.70006,-0.21895 1.02542,-0.39309 7.4e-4,-0.0127 0.002,-0.0375 0.003,-0.0499 -0.27628,-0.009 -0.58141,0.0489 -0.82759,-0.11213 0.31846,-0.20831 0.61866,-0.44219 0.91368,-0.68316 0.0387,0.0306 0.0777,0.0615 0.11618,0.0929 m 0.32388,0.80137 c 0.0207,0.002 0.0624,0.005 0.0831,0.007 0.0757,-0.10277 0.12827,-0.32425 -0.0323,-0.36702 -0.15663,0.0405 -0.15466,0.25944 -0.0508,0.36018 m -0.38284,-0.25362 c -0.0525,0.0709 -0.0286,0.16275 0.008,0.23515 0.12777,0.0261 0.22176,-0.12201 0.17365,-0.23591 -0.0291,-0.08 -0.14997,-0.0747 -0.18155,7.6e-4 z"
       id="path61"
       style="stroke-width:0.0249874" />
    <path
       fill="#000000"
       opacity="1"
       d="m 209.15044,194.27152 c -0.005,-0.0911 0.0965,-0.11947 0.16749,-0.11289 0.12926,0.007 0.26345,-0.0182 0.38925,0.0154 0.13617,0.0985 0.0743,0.29919 0.0863,0.44523 0.556,0.043 1.11866,0.005 1.67712,0.0185 0.0385,-0.15997 -0.0925,-0.4913 0.16626,-0.47915 0.15368,0.0238 0.4001,-0.0736 0.47707,0.11416 0.015,0.44624 4.9e-4,0.89477 0.003,1.34202 0.008,0.0785 -0.0496,0.1663 -0.13247,0.16073 -0.14652,-0.003 -0.29921,0.0197 -0.44179,-0.0109 -0.15367,-0.11897 -0.0602,-0.35234 -0.0883,-0.52092 -0.55254,7.6e-4 -1.10509,2.6e-4 -1.65788,2.6e-4 -0.0237,0.17186 0.0651,0.39891 -0.0844,0.52623 -0.13937,0.0157 -0.28047,0.008 -0.42033,0.007 -0.096,0.001 -0.14998,-0.0997 -0.14801,-0.18755 0.0101,-0.43916 0.008,-0.87883 0.007,-1.31824 z"
       id="path62"
       style="stroke-width:0.0249874" />
    <path
       fill="#000000"
       opacity="1"
       d="m 207.79935,194.20495 c 0.0883,-0.0605 0.14529,0.0552 0.19487,0.11315 0.16527,0.25058 0.34657,0.48978 0.51135,0.74062 0.0454,0.0557 0.0479,0.15667 -0.0479,0.13845 -0.31722,0.043 -0.482,-0.28805 -0.71634,-0.43941 -0.0602,0.0549 -0.11766,0.11314 -0.18056,0.16478 -0.0878,0.0739 -0.21683,0.0671 -0.30193,0.1425 -0.009,0.11112 0.1073,0.17389 0.15417,0.26375 0.15195,-0.061 0.3187,-0.26729 0.48274,-0.12732 0.13197,0.12757 0.28466,0.25008 0.36408,0.42119 -0.66527,0.002 -1.33203,0.0172 -1.99681,-0.007 0.2595,-0.22299 0.56833,-0.39511 0.7896,-0.65861 -0.19487,0.0896 -0.32881,0.27134 -0.5153,0.37411 -0.13518,-0.12909 -0.32585,-0.13213 -0.49902,-0.14048 -0.0592,-0.004 -0.16798,-0.0683 -0.0952,-0.13187 0.16009,-0.15744 0.33498,-0.29995 0.51184,-0.43688 0.12186,-0.10226 0.22941,0.0843 0.32956,0.13972 0.35965,-0.14124 0.66922,-0.38601 1.01481,-0.55661 z"
       id="path63"
       style="stroke-width:0.0249874" />
    <g
       id="g67"
       transform="matrix(0.02466725,0,0,0.02531169,194.84954,172.79199)">
      <path
         fill="#000000"
         opacity="1"
         d="m 863.96,867.55 c -8.01,0.34 -14.65,-13.02 -5.88,-16.85 7.57,-0.8 15.3,-0.17 22.93,-0.18 4.63,0.05 6.25,4.83 8.93,7.66 17.35,0.4 34.73,0.33 52.08,0 3.75,-0.34 5.19,4.16 5.79,7.1 -0.94,0.73 -1.87,1.46 -2.78,2.21 -27.02,-0.11 -54.05,0.02 -81.07,0.06 z"
         id="path64" />
      <path
         fill="#000000"
         opacity="1"
         d="m 860.23,876.34 c 1.18,-2.01 3.42,-3.22 5.76,-3.04 24.36,0.11 48.73,0.14 73.09,0.26 3.62,0.3 4.62,4.68 4.53,7.7 -1.76,0.96 -3.43,2.43 -5.57,2.18 -23.04,-0.03 -46.08,0.02 -69.12,-0.02 -3.72,-0.43 -9.42,-2.36 -8.69,-7.08 z"
         id="path65" />
      <path
         fill="#000000"
         opacity="1"
         d="m 850.19,891.26 c 4.39,-4.42 11.25,-1.96 16.78,-2.09 23.78,0.12 47.57,0.27 71.35,0.1 1.28,2.45 1.6,5.19 1.36,7.92 -1.17,0.75 -2.33,1.51 -3.47,2.29 -15.93,0 -31.88,0.14 -47.81,-0.1 -8.84,-2.17 -17.71,0.72 -26.62,0.12 -4.66,0.6 -9.08,-1.93 -11.69,-5.67 0.03,-0.64 0.07,-1.93 0.1,-2.57 z"
         id="path66" />
    </g>
  </g>
</svg>
