<svg width="981" height="986" xmlns="http://www.w3.org/2000/svg" version="1.1">
 <g>
  <title>Layer 1</title>
  <g id="#030303ff">
   <path fill="#ffffff" d="m468.49,0l50.02,0c66.66,4.17 132.75,20.92 192.51,50.95c114.83,56.22 207.53,158.37 247.88,280.14c12.31,35.64 18.39,73.06 22.1,110.49l0,57.93c-5.05,63.86 -20.88,126.6 -44.43,186.09c-32.24,81.14 -78.31,156.94 -136.67,221.95c-15.36,-4.66 -27.55,-15.62 -37.83,-27.54c-10.57,9.34 -22.33,18.13 -36.16,21.79c-15.76,4.86 -33.06,2.93 -48.03,-3.64c-24.65,-10.73 -46.21,-27.09 -67.94,-42.64c24.94,-13.18 44.19,-34.3 61.41,-56.18c30.53,-38.87 55.87,-81.57 78.71,-125.32c13.72,-25.54 25.85,-51.89 37.45,-78.45c12.99,-30.8 25.15,-62.18 32.1,-94.96c3.12,-14.04 4.12,-28.46 3.98,-42.81c26.85,18.34 54.58,37.48 72.19,65.52c4.57,-22.79 5.23,-46.16 5.34,-69.33c0.82,-31.97 -6.55,-63.59 -17.61,-93.41c-23.21,-61.76 -66.6,-114.54 -118.48,-154.61c-65.64,-49.91 -146.15,-78.97 -228.11,-85.77c-95.19,-9.68 -192.57,13.16 -275.49,60.29c-42.3,24.56 -81.12,55.91 -111.6,94.33c-24.99,31.36 -44.04,67.56 -54.73,106.25c-12.8,46.83 -12.41,96.48 -4.16,144.07c17.34,-28.94 45.62,-48.49 72.79,-67.32c-0.85,35.57 10.44,69.9 22.53,102.89c12.09,32.2 26.45,63.5 41.71,94.31c23.6,47.43 50.13,93.59 82.05,135.97c18.96,24.77 39.66,49.44 67.59,64.43c-13.86,10.48 -28.45,19.95 -42.91,29.58c9.26,19.71 18.17,42.27 10.28,63.99c-9.73,23.41 -35.86,34.24 -59.55,37.01l-24.95,0c-26.66,-2.94 -53.16,-7.34 -79.92,-9.43c-53.57,-4.16 -107.33,-7.26 -161.08,-6.18c-5.17,0.4 -10.8,-0.54 -14.8,-4.06c-2.55,-3.33 -3.4,-7.62 -4.68,-11.48l0,-1.68c1.77,-6.09 4.4,-14.41 11.64,-15.52c17.28,-2.99 34.92,-1.37 52.36,-1.68c41.01,1.02 82.12,1.71 122.94,6.06c21.22,2.1 41.96,7.37 63.12,9.91c15.89,1.43 32.54,1.89 47.58,-4.31c6.1,-2.84 10.97,-8.19 13.81,-14.22c3.46,-11.36 -1.9,-23.05 -6.51,-33.29c-15.48,4.96 -32.72,5.93 -48.09,0.1c-8.87,-3.26 -16.55,-8.96 -24.44,-14.01c-10.13,13.55 -25.51,22.29 -42.15,24.93c-67.77,-74.06 -119.08,-162.62 -152.08,-257.29c-19.44,-57.95 -32.55,-118.53 -33.1,-179.84c0.21,-50.31 7.75,-100.83 24.58,-148.33c17.57,-51.02 44.56,-98.66 78.35,-140.67c59.19,-73.29 139.35,-129.37 228.67,-159.43c42.54,-14.39 87.02,-22.66 131.81,-25.58z" id="svg_1"/>
   <path fill="#ffffff" d="m191.42,441.45c9.51,-2.1 18.09,3.79 25.96,8.15c24.84,17.57 44.24,41.43 62.6,65.39c48.74,66.84 86.4,141.52 113.33,219.67c8.73,27.92 17.2,56.67 16.49,86.22c-0.92,7.64 -2.85,16.71 -9.84,21.09c-9.64,3.12 -19.36,-1.39 -27.09,-6.87c-22.12,-16.43 -39.58,-38.11 -55.87,-60.1c-32.8,-45.01 -59.69,-94.01 -83.92,-144.06c-17.57,-37.78 -34.1,-76.21 -45.67,-116.3c-4.53,-17.47 -8.65,-35.37 -8.26,-53.52c0.92,-7.51 3.54,-18.09 12.27,-19.67z" id="svg_2"/>
   <path fill="#ffffff" d="m788.45,441.52c8.63,-3.06 17.47,3.69 18.74,12.31c4.19,23.89 -3.28,47.73 -9.81,70.48c-10.12,33.24 -23.75,65.29 -38.2,96.85c-20.49,43.28 -42.57,85.96 -69.13,125.88c-20.24,30.62 -42.2,60.77 -70.29,84.72c-8.83,6.41 -19.31,13.76 -30.9,10.43c-7.28,-3.14 -9.16,-11.94 -10.17,-19.03c-2.63,-23.31 4.16,-46.21 9.84,-68.55c10.84,-38.51 26.64,-75.39 43.55,-111.58c26.14,-54.6 57.28,-107.21 96.38,-153.6c12.62,-14.31 25.5,-28.82 41.58,-39.36c5.57,-3.84 11.59,-7.55 18.41,-8.55z" id="svg_3"/>
  </g>
 </g>

</svg>