<?xml version="1.0" encoding="UTF-8" ?>
<!DOCTYPE svg PUBLIC "-//W3C//DTD SVG 1.1//EN" "http://www.w3.org/Graphics/SVG/1.1/DTD/svg11.dtd">
<svg width="981pt" height="986pt" viewBox="0 0 981 986" version="1.1" xmlns="http://www.w3.org/2000/svg">
<g id="#030303ff">
<path fill="#030303" opacity="1.00" d=" M 468.49 0.00 L 518.51 0.00 C 585.17 4.17 651.26 20.92 711.02 50.95 C 825.85 107.17 918.55 209.32 958.90 331.09 C 971.21 366.73 977.29 404.15 981.00 441.58 L 981.00 499.51 C 975.95 563.37 960.12 626.11 936.57 685.60 C 904.33 766.74 858.26 842.54 799.90 907.55 C 784.54 902.89 772.35 891.93 762.07 880.01 C 751.50 889.35 739.74 898.14 725.91 901.80 C 710.15 906.66 692.85 904.73 677.88 898.16 C 653.23 887.43 631.67 871.07 609.94 855.52 C 634.88 842.34 654.13 821.22 671.35 799.34 C 701.88 760.47 727.22 717.77 750.06 674.02 C 763.78 648.48 775.91 622.13 787.51 595.57 C 800.50 564.77 812.66 533.39 819.61 500.61 C 822.73 486.57 823.73 472.15 823.59 457.80 C 850.44 476.14 878.17 495.28 895.78 523.32 C 900.35 500.53 901.01 477.16 901.12 453.99 C 901.94 422.02 894.57 390.40 883.51 360.58 C 860.30 298.82 816.91 246.04 765.03 205.97 C 699.39 156.06 618.88 127.00 536.92 120.20 C 441.73 110.52 344.35 133.36 261.43 180.49 C 219.13 205.05 180.31 236.40 149.83 274.82 C 124.84 306.18 105.79 342.38 95.10 381.07 C 82.30 427.90 82.69 477.55 90.94 525.14 C 108.28 496.20 136.56 476.65 163.73 457.82 C 162.88 493.39 174.17 527.72 186.26 560.71 C 198.35 592.91 212.71 624.21 227.97 655.02 C 251.57 702.45 278.10 748.61 310.02 790.99 C 328.98 815.76 349.68 840.43 377.61 855.42 C 363.75 865.90 349.16 875.37 334.70 885.00 C 343.96 904.71 352.87 927.27 344.98 948.99 C 335.25 972.40 309.12 983.23 285.43 986.00 L 260.48 986.00 C 233.82 983.06 207.32 978.66 180.56 976.57 C 126.99 972.41 73.23 969.31 19.48 970.39 C 14.31 970.79 8.68 969.85 4.68 966.33 C 2.13 963.00 1.28 958.71 0.00 954.85 L 0.00 953.17 C 1.77 947.08 4.40 938.76 11.64 937.65 C 28.92 934.66 46.56 936.28 64.00 935.97 C 105.01 936.99 146.12 937.68 186.94 942.03 C 208.16 944.13 228.90 949.40 250.06 951.94 C 265.95 953.37 282.60 953.83 297.64 947.63 C 303.74 944.79 308.61 939.44 311.45 933.41 C 314.91 922.05 309.55 910.36 304.94 900.12 C 289.46 905.08 272.22 906.05 256.85 900.22 C 247.98 896.96 240.30 891.26 232.41 886.21 C 222.28 899.76 206.90 908.50 190.26 911.14 C 122.49 837.08 71.18 748.52 38.18 653.85 C 18.74 595.90 5.63 535.32 5.08 474.01 C 5.29 423.70 12.83 373.18 29.66 325.68 C 47.23 274.66 74.22 227.02 108.01 185.01 C 167.20 111.72 247.36 55.64 336.68 25.58 C 379.22 11.19 423.70 2.92 468.49 0.00 Z" />
<path fill="#030303" opacity="1.00" d=" M 191.42 441.45 C 200.93 439.35 209.51 445.24 217.38 449.60 C 242.22 467.17 261.62 491.03 279.98 514.99 C 328.72 581.83 366.38 656.51 393.31 734.66 C 402.04 762.58 410.51 791.33 409.80 820.88 C 408.88 828.52 406.95 837.59 399.96 841.97 C 390.32 845.09 380.60 840.58 372.87 835.10 C 350.75 818.67 333.29 796.99 317.00 775.00 C 284.20 729.99 257.31 680.99 233.08 630.94 C 215.51 593.16 198.98 554.73 187.41 514.64 C 182.88 497.17 178.76 479.27 179.15 461.12 C 180.07 453.61 182.69 443.03 191.42 441.45 Z" />
<path fill="#030303" opacity="1.00" d=" M 788.45 441.52 C 797.08 438.46 805.92 445.21 807.19 453.83 C 811.38 477.72 803.91 501.56 797.38 524.31 C 787.26 557.55 773.63 589.60 759.18 621.16 C 738.69 664.44 716.61 707.12 690.05 747.04 C 669.81 777.66 647.85 807.81 619.76 831.76 C 610.93 838.17 600.45 845.52 588.86 842.19 C 581.58 839.05 579.70 830.25 578.69 823.16 C 576.06 799.85 582.85 776.95 588.53 754.61 C 599.37 716.10 615.17 679.22 632.08 643.03 C 658.22 588.43 689.36 535.82 728.46 489.43 C 741.08 475.12 753.96 460.61 770.04 450.07 C 775.61 446.23 781.63 442.52 788.45 441.52 Z" />
</g>
</svg>
