<?xml version="1.0" encoding="UTF-8" standalone="no"?>
<svg
   width="15.999999pt"
   height="16pt"
   viewBox="0 0 15.999999 16"
   version="1.1"
   id="svg73"
   sodipodi:docname="robot-16x16.svg"
   inkscape:version="1.3 (0e150ed6c4, 2023-07-21)"
   xmlns:inkscape="http://www.inkscape.org/namespaces/inkscape"
   xmlns:sodipodi="http://sodipodi.sourceforge.net/DTD/sodipodi-0.dtd"
   xmlns:xlink="http://www.w3.org/1999/xlink"
   xmlns="http://www.w3.org/2000/svg"
   xmlns:svg="http://www.w3.org/2000/svg">
  <defs
     id="defs73">
    <linearGradient
       id="swatch73"
       inkscape:swatch="solid">
      <stop
         style="stop-color:#ffffff;stop-opacity:1;"
         offset="0"
         id="stop73" />
    </linearGradient>
    <linearGradient
       inkscape:collect="always"
       xlink:href="#swatch73"
       id="linearGradient73"
       x1="137.49183"
       y1="497.95093"
       x2="927"
       y2="497.95093"
       gradientUnits="userSpaceOnUse" />
  </defs>
  <sodipodi:namedview
     id="namedview73"
     pagecolor="#ffffff"
     bordercolor="#ffffff"
     borderopacity="1"
     inkscape:showpageshadow="2"
     inkscape:pageopacity="0"
     inkscape:pagecheckerboard="0"
     inkscape:deskcolor="#d1d1d1"
     inkscape:document-units="pt"
     showgrid="false"
     inkscape:zoom="26.881106"
     inkscape:cx="14.545532"
     inkscape:cy="10.434838"
     inkscape:window-width="1920"
     inkscape:window-height="1056"
     inkscape:window-x="-8"
     inkscape:window-y="-8"
     inkscape:window-maximized="1"
     inkscape:current-layer="svg73" />
  <g
     id="#201020ff"
     transform="translate(-137.49183,-165.07237)" />
  <g
     id="#6ff3f7ff"
     transform="matrix(0.02026578,0,0,0.02202753,-2.7863792,-2.9686291)"
     style="fill:url(#linearGradient73)">
    <path
       fill="#ffffff"
       opacity="1"
       d="m 365.39,135.42 c 17.41,-3.85 36.04,9.89 37.52,27.69 2.9,12.15 -7.8,20.42 -12.03,30.49 -0.84,6.64 0.6,13.29 1.55,19.84 3.04,16.99 5.84,34.03 9.14,50.98 5.89,30.26 8.14,61.31 16.67,91.02 5.68,-3.73 10.91,-8.09 16.6,-11.81 0.55,-21.55 -0.42,-43.1 0.35,-64.63 0.6,-3.93 4.46,-6.76 8.24,-7.34 6.36,-1.1 12.62,-2.73 18.96,-3.96 13.4,-2.22 27.05,-1.42 40.55,-2.56 0.12,-30.05 0.08,-60.1 -0.06,-90.15 0.22,-7.58 -0.42,-15.46 2.34,-22.69 4.05,-2.98 10.99,-2.99 13.3,2.1 1.3,21.5 0.12,43.07 0.45,64.6 -0.3,15.65 0.9,31.31 0.17,46.95 21.68,-0.59 43.48,0.13 64.72,4.86 -1.54,22.96 -0.74,45.99 -0.76,68.99 6.69,4.46 12.97,9.56 19.98,13.53 3.89,-26.49 11.03,-52.37 15.39,-78.79 3.96,-25.86 9.85,-51.43 12.65,-77.47 1.08,-5.94 -3.5,-10.3 -5.94,-15.12 -8.38,-13.94 -5.47,-35.99 10.76,-43.05 16.99,-9.93 40.42,1.82 44.54,20.54 3.41,12.06 -0.69,26.61 -11.48,33.55 -5.7,4.87 -13.53,5.01 -20.47,6.61 -1.49,12.15 -4.74,23.99 -6.95,36.01 -4.45,21.78 -7.73,43.76 -11.35,65.68 42.09,0.86 84.2,0.84 126.3,0.62 3,-13.51 11.74,-26.02 24.42,-32 9.11,-4.8 19.93,-4.87 29.92,-3.75 12.72,1.49 23.55,10.73 29.11,21.96 6.21,14.44 6.58,31.89 -0.91,45.95 -12.63,20.75 -43.35,27.28 -63.17,13.03 -9.8,-6.5 -14.3,-17.78 -18.93,-28.07 -43.27,-0.04 -86.54,-0.08 -129.81,0.03 -1.8,10.82 -3.87,21.59 -5.58,32.43 -0.29,4.52 -2.41,8.48 -4.55,12.33 18.04,19.88 34.4,41.94 43.83,67.29 6.3,17.62 7.53,36.42 9.33,54.89 16.56,0.59 33.38,-1.54 49.81,1.06 8.46,0.24 10.36,12.88 3.36,16.24 -17.95,1.68 -36.07,0.35 -54.08,0.7 -0.96,31.46 -11.67,62.62 -30.28,88 -5.77,9.01 -13.43,16.59 -19.43,25.41 -1.79,1.85 -1.09,4.45 -0.91,6.69 2.41,16.94 5.71,33.74 8.78,50.58 29.8,0.68 59.62,0.16 89.43,0.33 0.11,4.62 0.26,9.31 0.48,13.96 5.49,-2.88 9.09,-8.23 11.2,-13.93 5.81,0.13 11.67,0.3 17.5,0.63 0.46,-7.37 5.15,-13.17 8.04,-19.64 4.42,-10.29 13.55,-17.83 23.62,-22.29 16.81,-5.92 37.66,-3.12 49.81,10.76 16.35,17.49 14.58,48.75 -4.35,63.65 -10.54,9.05 -25.88,10.57 -39.03,7.69 -12.6,-3.95 -22.14,-13.92 -29.35,-24.6 -11.1,0.71 -22.23,0.81 -33.33,0.45 0.05,-1.3 0.1,-2.61 0.16,-3.9 -0.92,1.58 -1.81,3.18 -2.7,4.78 -28.91,-1.18 -57.85,-0.31 -86.77,-0.59 3.86,35.37 11.45,70.19 16.02,105.47 5.82,0.87 12.21,0.83 17.43,3.99 13.83,9.05 20.97,28.18 13.48,43.6 -8.1,16.94 -33.02,20.96 -46.77,8.62 -10.57,-9.22 -12.36,-24.72 -9.31,-37.69 1.47,-7.07 5.64,-13.14 8.2,-19.78 -0.34,-15.25 -4.34,-30.15 -6.39,-45.21 -3.61,0.27 -7.21,0.56 -10.8,0.89 0.01,-3.66 0.04,-10.99 0.05,-14.65 2.57,-0.46 5.14,-0.94 7.72,-1.38 -6.17,-36.22 -12.9,-72.34 -19.2,-108.53 -4.2,2.4 -9.71,4.51 -9.54,10.18 -3.27,-0.18 -6.46,-0.27 -9.71,-0.33 -0.7,23.13 -0.02,46.27 -0.54,69.4 -20.88,1.4 -41.8,1.7 -62.71,1.44 -0.13,27.66 -1.64,55.34 -0.21,82.98 0.2,10.23 0.7,20.51 -0.29,30.72 -0.93,4.1 -5.71,5.82 -9.49,5.49 -2.86,-2.19 -6.32,-4.67 -6.57,-8.58 -1.88,-36.57 0.56,-73.18 0.5,-109.76 -15.98,-1.01 -32.02,-1.44 -48.01,-0.66 -2.94,0.41 -4.77,3.11 -6.95,4.87 0.62,-1.33 1.24,-2.65 1.87,-3.96 -5.07,-0.69 -10.12,-1.32 -15.16,-2.13 -1.53,-24.39 -0.38,-48.83 -0.93,-73.23 -5.23,-1.88 -9.86,-5 -14.56,-7.89 -4.73,28.75 -12.42,56.91 -16.45,85.78 -3.64,27.62 -10.59,54.8 -13,82.56 2.99,6.62 9.2,11.84 10.67,19.24 2.36,11.41 2.76,24.73 -4.55,34.54 -8.9,13.52 -30.38,17.94 -42.94,7 -11.9,-8.15 -15.33,-24.36 -11.66,-37.65 3.18,-8.01 9.08,-15.61 17.75,-17.92 4.07,-2.03 10.22,-1.04 12.51,-5.79 3.14,-8.55 4.17,-17.65 5.58,-26.59 3.76,-25.02 8.8,-49.85 11.76,-74.99 -35.9,-0.03 -71.8,-0.12 -107.7,0.05 -5.62,8.5 -11.25,18.08 -21.24,21.97 -15.46,6.4 -35.6,6.5 -48.33,-5.72 -15.11,-13.78 -17.2,-37.41 -10.03,-55.68 4.21,-8.12 11.75,-14.04 19.74,-18.19 15.64,-5.23 35.05,-4.11 47.63,7.52 9.05,8.71 12.82,20.98 15.33,32.92 36.18,0.01 72.38,0.26 108.56,0.28 3.78,-17.44 6.88,-35.02 9.68,-52.64 -0.17,-3.08 2.37,-7.62 -1.23,-9.82 -12.16,-12.56 -22.68,-26.83 -30.61,-42.42 -8.51,-20.99 -15.52,-42.85 -16.92,-65.59 -12.97,-0.98 -25.91,0.28 -38.87,0.26 -2.49,-0.25 -5.77,-0.35 -6.94,-3.03 -4.25,-4.62 -1.67,-13.3 4.6,-14.29 13.75,-1.37 27.6,-0.53 41.4,-0.68 1.27,-13 1.74,-26.18 4.94,-38.91 5.29,-23.93 16.53,-46.34 31.47,-65.68 3.66,-4.91 8.21,-9.01 13.14,-12.61 -5.14,-16.5 -6.51,-33.81 -9.75,-50.72 -36.91,-0.1 -73.82,-0.05 -110.73,-0.03 -2.04,8.5 -4.92,17.38 -11.77,23.29 -12.09,12.46 -32.1,16.46 -47.92,9.2 -6.86,-3.76 -13.1,-8.76 -18.02,-14.86 -6.81,-9.33 -8.26,-21.42 -8.29,-32.66 0.92,-20.47 19.9,-39.73 40.89,-38.09 21.47,-1.51 40.8,15.64 45.64,35.97 24.13,-1.14 48.25,0.69 72.39,0.01 11.34,-0.28 22.7,-0.91 34.03,-0.04 -2.79,-25.03 -8.02,-49.68 -12.4,-74.46 -1.72,-9.28 -2.99,-18.67 -5.47,-27.8 -7.64,-0.86 -15.84,-1.76 -22.13,-6.66 -8.77,-5.02 -8.81,-16.95 -16.38,-23.04 0.93,-0.27 1.86,-0.54 2.8,-0.82 1.25,-7.68 2.26,-16 7.35,-22.26 5.64,-5.49 12.5,-10.53 20.58,-11.38 m 284.97,16.89 c -4.38,0.8 -8.62,3.3 -10.76,7.3 -2.66,6.95 -0.02,17.21 8.38,18.46 5.67,2.16 13.98,-0.36 15.32,-6.9 3.1,-8.22 -3.86,-19.64 -12.94,-18.86 m -282.93,1.17 c -5.5,1.22 -12.25,6.13 -10.48,12.48 -1.43,13.32 17.96,16.68 25.26,8.27 2.33,-5.6 3.22,-13.95 -2.48,-17.93 -3.31,-2.92 -8.02,-3.91 -12.3,-2.82 M 240.21,281.54 c -16.88,-1.19 -30.3,17.12 -25.77,33.07 1.36,16.8 20.81,29.21 36.48,22.29 13.73,-4.7 19.05,-21.91 15,-34.89 -2.78,-11.44 -13.39,-21.55 -25.71,-20.47 m 556.22,0.93 c -8.37,1.09 -15.25,7.56 -19.27,14.64 -3.78,7.73 -2.36,16.94 -0.25,24.94 5.35,12.53 21.09,20.32 34.07,14.9 12.3,-3.01 19.77,-16.73 17.88,-28.91 0.68,-16.32 -16.58,-30.05 -32.43,-25.57 m -343.69,5.6 c -1.03,15.91 -0.08,31.85 0.34,47.77 24.38,-10.62 51.72,-13.76 78.06,-11.02 11.15,1.44 22.59,2.52 33.04,6.95 1.22,-14.93 0.8,-29.93 0.38,-44.88 -37.22,-1.99 -74.77,-3.93 -111.82,1.18 m 4.44,66.21 c -36.27,17.08 -65.87,48.69 -79.27,86.62 -4.13,12.44 -3.63,25.73 -4.53,38.64 -0.45,12.08 -0.97,24.21 -0.01,36.28 1,7.53 10.61,13.08 17.28,8.84 4.2,-5.59 7.36,-11.99 10.21,-18.38 14.07,2.37 28.33,-0.54 42.07,-3.46 2.81,-5.94 0.19,-13.12 0.86,-19.42 -13.38,-3.34 -26.94,-6.39 -40.76,-6.53 -6.5,-5.44 -9.54,-16.05 -4.65,-23.54 4.74,-5.83 12.87,-6.28 19.58,-4.34 5.14,1.55 6.05,7.66 8.33,11.85 4.65,0.74 9.3,1.58 13.97,2.17 1.89,-4.48 4.12,-8.85 6.88,-12.86 6.04,-7.69 15.25,-11.99 23.85,-16.15 10.52,-5.23 22.23,-8.22 34,-8.11 23.44,-0.66 48.36,4.02 67.08,19.05 6.49,4.74 10.1,12.14 13.33,19.29 5.92,-1.14 12.08,-1.8 17.61,-4.32 3.04,-3.08 4.16,-7.63 7.35,-10.59 6.03,-2.81 14.08,-4.03 19.42,0.9 3.33,3.06 2.05,8.25 1.74,12.13 -0.35,6.01 -2.71,12.86 -8.8,15.27 -5.12,0.66 -10.49,-3.02 -15.45,-0.53 -7.47,3.23 -15.58,4.56 -23.61,5.54 -0.42,7.4 -0.64,14.81 -0.82,22.23 13.02,1.08 26.34,0.96 39.05,4.34 5.2,4.17 8.2,10.43 11.44,16.14 5.41,-0.81 12.81,-0.57 15.67,-6.32 2.64,-7.01 1.89,-14.68 2.49,-21.99 1.18,-27.3 -2.05,-55.8 -15.41,-80.07 -9.67,-18.38 -23.18,-34.63 -39.19,-47.81 -22.74,-16.59 -51.24,-22.53 -78.87,-24.03 -20.48,0.58 -41.45,2.03 -60.84,9.16 m 41.32,93.55 c -10.17,3.3 -22.07,3.34 -29.8,11.87 -6.39,5.34 -5.54,14.28 -5.35,21.72 11.72,-3.93 23.43,-7.87 35.51,-10.57 -0.32,-0.72 -0.63,-1.43 -0.94,-2.13 8.74,2.09 17.83,1.36 26.65,2.91 12.99,1.9 24.94,7.64 37.35,11.59 0.07,-6.1 0.09,-12.2 0.12,-18.29 -17.58,-14.32 -41.06,-21.16 -63.54,-17.1 m -34.58,54.56 c -0.57,6.74 -0.63,13.5 -0.68,20.28 17.79,-2.33 35.5,-6.85 53.59,-5.08 1.75,-3.32 3.63,-6.59 6.04,-9.48 1.43,3.64 -0.01,7.11 -2.61,9.76 14.51,1.13 28.47,5.34 42.67,8.27 0.06,-7.16 0.11,-14.32 0.19,-21.46 -13.69,-4.72 -27.58,-8.83 -41.55,-12.62 -0.18,2.53 -0.49,5.05 -0.9,7.56 -2.07,-2.73 -3.46,-6 -6.02,-8.32 -17.65,-1.64 -34.31,5.66 -50.73,11.09 m -37.07,23.41 c -4.05,-0.27 -6.29,1.65 -6.74,5.77 -0.49,-1.29 -0.99,-2.57 -1.5,-3.83 -0.67,3.95 -0.66,8.1 -2.11,11.89 -3.67,4.6 -9.75,8.36 -15.84,6.75 -4.91,-2.11 -5.97,-7.93 -7.37,-12.5 -4.89,1.75 -9.8,3.44 -14.7,5.17 2.96,15.87 8.81,31.5 19.66,43.71 10.47,12.02 22.42,23.77 37.68,29.38 19.08,7.67 39.24,12.59 59.61,15.31 20.59,2.61 41.45,0.43 61.81,-3.04 16.08,-3.09 32.45,-7.98 45.12,-18.88 20.77,-16.06 34.99,-39.14 43.5,-63.73 -4.42,-3.01 -9.07,-5.69 -13.79,-8.17 -1.55,5.57 -4.16,12.39 -10.28,14.27 -4.55,0.5 -10.12,0.25 -13.22,-3.59 -4.18,-5.14 -5.02,-11.88 -6.48,-18.09 -4.39,-0.61 -8.77,-1.21 -13.21,-1.13 -5.35,-3.25 -5.71,3.08 -7.58,5.43 -2.98,7.43 -9.25,13.21 -16.54,16.31 -13.73,0.04 -26.75,-5.58 -40.44,-6.33 -22.04,-2.69 -44.09,1.41 -65.58,5.95 -10.82,-0.28 -16.08,-12.32 -16.75,-21.74 -5.09,0.32 -10.21,0.35 -15.25,1.09 m 25.17,112.33 c 0.53,16.95 0.39,33.91 1.07,50.86 37.31,-0.71 74.64,2.72 111.93,0 0.1,-14.39 -0.11,-28.78 -1.05,-43.14 -37.25,5.48 -76.13,4.81 -111.95,-7.72 m -215.63,9.25 c -17.55,1.26 -28.24,22.14 -21.46,37.65 6.08,14.97 26.01,21.28 40.05,13.97 11.97,-6.71 15.29,-22.9 9.81,-34.89 -3.55,-11.79 -16.42,-19.04 -28.4,-16.73 m 551.04,0.08 c -11.24,1.44 -18.32,13.09 -19.4,23.57 -0.86,9.39 5.26,17.29 11.24,23.7 7.5,7.42 19.28,7.7 28.65,4.15 14.63,-4.66 19.6,-24.02 13.04,-36.86 -5.08,-12.72 -21.1,-17.1 -33.53,-14.56 M 367.46,816.53 c -4.72,1.64 -9.69,5.81 -8.54,11.5 -2.42,11.84 13.93,18.71 21.83,10.73 7.59,-8.66 -0.76,-27.09 -13.29,-22.23 m 279.99,0.01 c -5.25,1.56 -9.58,6.61 -8.41,12.46 -1.61,8.84 8.17,15.94 16.3,13.39 7.69,-1.2 11.58,-10.59 8.71,-17.42 -1.04,-7.43 -10.09,-10.69 -16.6,-8.43 z"
       id="path1"
       style="fill:url(#linearGradient73)" />
    <path
       fill="#ffffff"
       opacity="1"
       d="m 452.12,164.15 c 1.68,0.3 3.38,0.6 5.01,1.18 0.15,3.42 -2.13,5.95 -6.21,5.52 0.37,-2.24 0.78,-4.47 1.2,-6.7 z"
       id="path2"
       style="fill:url(#linearGradient73)" />
    <path
       fill="#ffffff"
       opacity="1"
       d="m 305.54,169.28 c 1.37,0.01 2.74,0.02 4.12,0.03 -0.03,1.16 -0.06,2.32 -0.08,3.48 -1.56,-0.25 -3.11,-0.51 -4.66,-0.77 0.16,-0.69 0.46,-2.06 0.62,-2.74 z"
       id="path3"
       style="fill:url(#linearGradient73)" />
    <path
       fill="#ffffff"
       opacity="1"
       d="m 817.47,231.23 c 1.26,-1.68 3.68,-0.12 5.43,-0.15 -1.58,1.64 -3.19,3.25 -4.82,4.82 -0.28,-1.55 -0.6,-3.1 -0.61,-4.67 z"
       id="path4"
       style="fill:url(#linearGradient73)" />
    <path
       fill="#ffffff"
       opacity="1"
       d="m 657.93,253.77 c 1.16,1.43 2.28,2.89 3.38,4.38 -1.41,0.22 -2.82,0.43 -4.22,0.63 0.26,-1.68 0.53,-3.35 0.84,-5.01 z"
       id="path5"
       style="fill:url(#linearGradient73)" />
    <path
       fill="#ffffff"
       opacity="1"
       d="m 612.07,264.85 c 1.12,0.2 2.26,0.41 3.4,0.62 0.17,0.62 0.5,1.85 0.67,2.46 -1.4,0.03 -2.78,0.06 -4.16,0.1 0.02,-0.8 0.06,-2.38 0.09,-3.18 z"
       id="path6"
       style="fill:url(#linearGradient73)" />
    <path
       fill="#ffffff"
       opacity="1"
       d="m 525.95,299.35 c 1.53,-1.14 3.14,-2.15 4.75,-3.17 0.04,1.88 0.08,3.77 0.12,5.66 -1.65,-0.8 -3.3,-1.56 -4.87,-2.49 z"
       id="path7"
       style="fill:url(#linearGradient73)" />
    <path
       fill="#ffffff"
       opacity="1"
       d="m 238.34,298.32 c 6.25,-0.61 12.72,3.66 14.89,9.53 1.87,4.61 -0.86,10.03 -4.98,12.38 -6.5,3.27 -15.45,0.98 -18.64,-5.85 -3.01,-6.65 1.59,-15.1 8.73,-16.06 z"
       id="path8"
       style="fill:url(#linearGradient73)" />
    <path
       fill="#ffffff"
       opacity="1"
       d="m 798.48,298.49 c 7.56,-2.88 17.88,2.75 16.61,11.55 0.54,8.89 -10.8,14.12 -18.1,9.97 -9.22,-3.54 -7.38,-18.67 1.49,-21.52 z"
       id="path9"
       style="fill:url(#linearGradient73)" />
    <path
       fill="#ffffff"
       opacity="1"
       d="m 495.21,308.15 c 1.27,-3.76 3.27,-7.21 5.8,-10.25 1.78,2.49 3.39,5.12 4.81,7.85 -3.52,0.86 -7.05,1.72 -10.61,2.4 z"
       id="path10"
       style="fill:url(#linearGradient73)" />
    <path
       fill="#ffffff"
       opacity="1"
       d="m 490.12,365.97 c -0.49,-6.72 4.1,-12.39 6.25,-18.4 -0.75,6.13 -1.44,12.26 -2.19,18.4 -1.01,0 -3.04,0 -4.06,0 z"
       id="path11"
       style="fill:url(#linearGradient73)" />
    <path
       fill="#ffffff"
       opacity="1"
       d="m 668.3,351.21 c 13.55,-1.02 26.29,13.58 21.72,26.8 -3.13,14 -22.71,19.77 -33.05,10.02 -6.92,-5.5 -8.36,-15.21 -6.47,-23.45 2.44,-7.53 9.88,-13.05 17.8,-13.37 m -1.11,26.14 c 1.86,-0.59 3.73,-1.2 5.6,-1.79 -1.23,-2.97 -2.56,-5.84 -4.17,-8.61 -1.9,3.17 -2.48,6.84 -1.43,10.4 z"
       id="path12"
       style="fill:url(#linearGradient73)" />
    <path
       fill="#ffffff"
       opacity="1"
       d="m 355.44,352.46 c 12.25,-3.74 24.06,7.61 23.58,19.59 0.32,11.74 -10.39,22.92 -22.48,20.6 -16.93,-1.1 -22.61,-26.17 -10.16,-36.25 2.5,-2.24 5.72,-3.62 9.06,-3.94 m 4.42,16.64 c -1.59,2.89 -2.5,6.08 -2.76,9.36 2.15,-0.76 4.29,-1.56 6.41,-2.42 -1.15,-2.35 -2.35,-4.68 -3.65,-6.94 z"
       id="path13"
       style="fill:url(#linearGradient73)" />
    <path
       fill="#ffffff"
       opacity="1"
       d="m 575.95,374.89 c 0.6,-2.75 1.17,-5.51 1.8,-8.24 0.23,3.09 0.56,6.26 0.69,9.37 -0.62,-0.28 -1.87,-0.85 -2.49,-1.13 z"
       id="path14"
       style="fill:url(#linearGradient73)" />
    <path
       fill="#ffffff"
       opacity="1"
       d="m 165.96,374.83 c 1.41,-0.33 2.81,-0.66 4.21,-0.97 0.02,1.76 0.02,3.52 0,5.28 -1.4,-0.32 -2.8,-0.65 -4.21,-0.97 0,-0.84 0,-2.5 0,-3.34 z"
       id="path15"
       style="fill:url(#linearGradient73)" />
    <path
       fill="#ffffff"
       opacity="1"
       d="m 432.34,374.43 c 1.05,-0.05 2.1,-0.09 3.16,-0.12 0.21,1.22 0.42,2.45 0.64,3.68 -0.79,-0.02 -2.35,-0.06 -3.14,-0.08 -0.22,-1.16 -0.44,-2.32 -0.66,-3.48 z"
       id="path16"
       style="fill:url(#linearGradient73)" />
    <path
       fill="#ffffff"
       opacity="1"
       d="m 842.63,373.1 c 2.28,1.41 4.42,3.07 6.3,5.01 -1.57,1.14 -3.11,2.28 -4.67,3.41 -0.95,-2.71 -1.49,-5.55 -1.63,-8.42 z"
       id="path17"
       style="fill:url(#linearGradient73)" />
    <path
       fill="#ffffff"
       opacity="1"
       d="m 438.98,384.93 c -0.78,-3.95 1.47,-7.28 4.34,-9.73 0.66,2.83 1.31,5.67 1.89,8.52 -2.09,0.39 -4.16,0.79 -6.23,1.21 z"
       id="path18"
       style="fill:url(#linearGradient73)" />
    <path
       fill="#ffffff"
       opacity="1"
       d="m 488.61,379.44 c 33.47,-5.18 68.72,1.71 97.74,19.21 7.11,4.37 18.21,5.69 21.17,14.67 0.36,6.31 -2.81,12.62 -7.46,16.73 -6.02,3.45 -13.8,0.98 -18.3,-3.83 -1.88,-3.66 -2.32,-8.35 -6.25,-10.62 -19.65,-11.49 -42.73,-16.33 -65.39,-16 -5.79,0.04 -12.58,-1.08 -17.39,2.93 -17.21,-1.87 -32.95,7.37 -46.65,16.6 -3.19,2.42 -4.22,6.56 -6.54,9.68 -4.78,3.18 -10.8,2.62 -16.23,2.64 -5.31,-0.38 -7.56,-5.87 -9.99,-9.77 -1.87,-3.64 -4.87,-6.61 -6.36,-10.43 6.48,-7.82 16.68,-8.98 25.93,-10.66 18.57,-7.04 35.77,-18.02 55.72,-21.15 z"
       id="path19"
       style="fill:url(#linearGradient73)" />
    <path
       fill="#ffffff"
       opacity="1"
       d="m 737.18,396.28 c 1.11,-3.57 2.98,-6.87 5.68,-9.48 0.81,2.74 2.44,5.74 1.12,8.61 -1.7,0.22 -5.1,0.65 -6.8,0.87 z"
       id="path20"
       style="fill:url(#linearGradient73)" />
    <path
       fill="#ffffff"
       opacity="1"
       d="m 400.18,407.59 c 1.25,-1.36 3.65,0.75 2.34,2.14 -1.3,1.44 -3.7,-0.74 -2.34,-2.14 z"
       id="path21"
       style="fill:url(#linearGradient73)" />
    <path
       fill="#ffffff"
       opacity="1"
       d="m 610.97,407.78 c 2,-0.12 4,-0.21 6.02,-0.27 -1.97,2.08 -4.25,3.85 -6.66,5.38 0.19,-1.71 0.41,-3.41 0.64,-5.11 z"
       id="path22"
       style="fill:url(#linearGradient73)" />
    <path
       fill="#ffffff"
       opacity="1"
       d="m 708.92,414.43 c 2.74,-1.89 5.56,-3.73 8.43,-5.46 -2.39,2.41 -5.26,4.27 -8.43,5.46 z"
       id="path23"
       style="fill:url(#linearGradient73)" />
    <path
       fill="#ffffff"
       opacity="1"
       d="m 503.93,415.27 c 2.22,-1.84 4.91,-1.84 7.14,0 -2.39,0.06 -4.77,0.06 -7.14,0 z"
       id="path24"
       style="fill:url(#linearGradient73)" />
    <path
       fill="#ffffff"
       opacity="1"
       d="m 475.58,419.36 c 1.67,-2.08 2.86,-5.66 6.1,-5.33 1.25,1.59 2.03,3.47 2.86,5.31 -3,0.03 -5.99,0.03 -8.96,0.02 z"
       id="path25"
       style="fill:url(#linearGradient73)" />
    <path
       fill="#ffffff"
       opacity="1"
       d="m 531.91,417.96 c 2.11,-0.37 4.23,-0.73 6.36,-1.05 -0.76,1.41 -1.53,2.81 -2.3,4.21 -1.16,-0.19 -2.31,-0.38 -3.46,-0.56 -0.15,-0.65 -0.45,-1.95 -0.6,-2.6 z"
       id="path26"
       style="fill:url(#linearGradient73)" />
    <path
       fill="#ffffff"
       opacity="1"
       d="m 793.87,419.93 c 2.31,-0.41 4.62,-0.81 6.95,-1.18 -0.22,2.09 0.06,4.36 -0.87,6.3 -1.3,1.31 -3.05,2.03 -4.6,2.97 -0.52,-2.7 -1.01,-5.4 -1.48,-8.09 z"
       id="path27"
       style="fill:url(#linearGradient73)" />
    <path
       fill="#ffffff"
       opacity="1"
       d="m 625.64,428.76 c 0.88,0.28 2.64,0.84 3.52,1.12 -1.56,2.63 -3.24,5.19 -5.1,7.62 0.42,-2.93 0.96,-5.85 1.58,-8.74 z"
       id="path28"
       style="fill:url(#linearGradient73)" />
    <path
       fill="#ffffff"
       opacity="1"
       d="m 155.23,438.11 c 1.24,-4.17 6.51,-3.7 9.77,-3.99 13.67,-0.45 27.42,-0.58 41.05,0.78 2.75,0.22 6.22,1.43 6.33,4.71 1.21,11.75 0.55,23.59 0.67,35.39 -0.25,19.98 0.61,40.02 -0.93,59.97 -18.81,0.06 -37.61,-0.01 -56.42,0.1 -6.3,-15.68 -9.38,-32.4 -15.78,-48.04 -1.47,-4.09 -4.08,-8.98 -0.97,-12.98 7.83,-10.88 10.4,-24.15 16.28,-35.94 m 12.21,12.98 c -2.96,9.44 -7.35,18.36 -10.58,27.7 -0.65,1.93 -0.11,3.97 0.29,5.9 2.67,11.16 6.23,22.08 9.07,33.2 10.18,0.06 20.36,0.31 30.54,0.67 0.17,-6.45 0.15,-12.92 0.23,-19.35 -8.14,-5.4 -17.63,-9.62 -23.34,-17.87 -2.25,-4.63 1.79,-9.59 5.01,-12.69 4.55,-5.08 12,-4.19 18.11,-4.38 0,-4.36 -0.05,-8.73 -0.09,-13.07 -9.75,-0.27 -19.5,-0.17 -29.24,-0.11 z"
       id="path29"
       style="fill:url(#linearGradient73)" />
    <path
       fill="#ffffff"
       opacity="1"
       d="m 831.4,434.55 c 16.25,-0.93 32.51,0.07 48.76,0.39 6.14,11.87 8.61,25.25 15.14,36.94 1.08,2.45 2.91,5 2.21,7.81 -4.23,13.86 -9.29,27.45 -13.32,41.38 -1.75,4.67 -2.78,10.86 -7.6,13.44 -17.22,1.25 -34.5,0.27 -51.74,0.45 -1.65,-25.95 -0.54,-51.98 -0.95,-77.97 0.49,-6.17 -0.84,-12.77 1.41,-18.68 0.85,-2.55 3.66,-3.52 6.09,-3.76 m 8.61,16.47 c 0.43,4.1 0.8,8.19 1.23,12.31 5.55,0.14 12.2,-0.46 16.1,4.34 3.16,3.89 8.07,9.5 5.29,14.93 -6.32,6.72 -15.08,10.32 -22.53,15.57 -0.07,6.93 -0.11,13.88 -0.13,20.83 9.36,0 18.73,-0.01 28.11,0.01 3.97,-12.63 9.59,-24.96 11.44,-38.13 -1.77,-10.32 -6.37,-19.92 -9.73,-29.8 -9.94,-0.07 -19.86,-0.08 -29.78,-0.06 z"
       id="path30"
       style="fill:url(#linearGradient73)" />
    <path
       fill="#ffffff"
       opacity="1"
       d="m 509.04,459.26 c 1.63,-0.81 3.26,-1.63 4.9,-2.44 -0.39,1.75 -0.77,3.49 -1.14,5.25 -1.11,-0.19 -2.21,-0.37 -3.31,-0.53 -0.11,-0.57 -0.34,-1.71 -0.45,-2.28 z"
       id="path31"
       style="fill:url(#linearGradient73)" />
    <path
       fill="#ffffff"
       opacity="1"
       d="m 244.22,466.28 c 21.83,1.19 43.72,-1.14 65.52,0.7 -1.03,4.12 1.05,11.54 -4.19,13.34 -13.07,2.31 -26.4,0.44 -39.56,1.61 -0.02,12.56 -0.05,25.14 0.25,37.71 14.01,-0.49 28.06,-1.01 42.05,0.25 1.34,5.09 1.4,10.36 0.11,15.5 -19.44,-0.06 -38.89,0 -58.32,0.01 -4.7,0.25 -5.32,-5.69 -5.51,-9.04 -1.24,-20 -0.56,-40.06 -0.35,-60.08 z"
       id="path32"
       style="fill:url(#linearGradient73)" />
    <path
       fill="#ffffff"
       opacity="1"
       d="m 730.03,470.08 c 1.56,-4.32 7.49,-3.47 10.98,-3.85 19.65,0.71 39.33,-0.53 58.97,0.85 -0.53,22.65 1.28,45.43 -0.92,68.01 -22.23,0.94 -44.51,-0.63 -66.75,-0.24 -0.86,-0.73 -1.71,-1.44 -2.55,-2.15 0.26,-4.49 0.79,-8.95 1.53,-13.39 15.84,-0.62 31.76,0.39 47.57,-1.19 0.29,-12.2 1.14,-24.38 0.97,-36.58 -15.29,0.17 -30.59,-0.28 -45.85,-0.65 -5.15,-0.33 -5.04,-6.99 -3.95,-10.81 z"
       id="path33"
       style="fill:url(#linearGradient73)" />
    <path
       fill="#ffffff"
       opacity="1"
       d="m 220.43,477.48 c 1.23,1.54 2.43,3.11 3.6,4.7 -1.37,0.35 -2.75,0.7 -4.13,1.05 0.17,-1.92 0.34,-3.84 0.53,-5.75 z"
       id="path34"
       style="fill:url(#linearGradient73)" />
    <path
       fill="#ffffff"
       opacity="1"
       d="m 633.63,487.65 c 1.62,-0.32 3.26,-0.62 4.9,-0.91 0.55,2.92 1,5.86 1.32,8.82 -3.53,-1.21 -6.54,-3.54 -6.22,-7.91 z"
       id="path35"
       style="fill:url(#linearGradient73)" />
    <path
       fill="#ffffff"
       opacity="1"
       d="m 387.25,494.9 c 0.95,0.04 2.87,0.13 3.83,0.18 0.34,2.59 0.67,5.19 0.95,7.8 -6.66,1.1 -4.95,-4.56 -4.78,-7.98 z"
       id="path36"
       style="fill:url(#linearGradient73)" />
    <path
       fill="#ffffff"
       opacity="1"
       d="m 644.94,495.87 c 1.55,0.17 3.1,0.35 4.66,0.54 0,1.54 0,4.61 0,6.14 -1.2,0.18 -2.4,0.36 -3.59,0.55 -0.37,-2.42 -0.73,-4.83 -1.07,-7.23 z"
       id="path37"
       style="fill:url(#linearGradient73)" />
    <path
       fill="#ffffff"
       opacity="1"
       d="m 227.26,508.61 c 1.08,1.68 2.13,3.38 3.18,5.09 l -5.96,-0.01 c 0.9,-1.71 1.83,-3.4 2.78,-5.08 z"
       id="path38"
       style="fill:url(#linearGradient73)" />
    <path
       fill="#ffffff"
       opacity="1"
       d="m 601.19,530.67 c 1.65,0.06 1.25,2.78 -0.23,2.82 -1.65,-0.08 -1.21,-2.74 0.23,-2.82 z"
       id="path39"
       style="fill:url(#linearGradient73)" />
    <path
       fill="#ffffff"
       opacity="1"
       d="m 754.01,546.94 c 2.28,-1.34 4.62,-2.56 7.02,-3.68 -0.3,2.13 -0.6,4.27 -0.93,6.4 -2.06,-0.86 -4.09,-1.77 -6.09,-2.72 z"
       id="path40"
       style="fill:url(#linearGradient73)" />
    <path
       fill="#ffffff"
       opacity="1"
       d="m 586.13,550.15 c 10.19,-4.27 24.37,5.48 20.98,16.88 -1.2,6.13 -8.09,7.86 -13.18,9.8 -10.55,2.02 -18.5,9.35 -26.95,15.35 0.58,-1.19 1.18,-2.37 1.78,-3.55 -9,1.82 -17.55,5.7 -26.79,6.24 -25.58,2.7 -51.59,2.62 -76.93,-2.09 -9.75,-2.58 -19.33,-5.75 -29.04,-8.45 -7.33,-1.68 -15.54,-1.84 -21.82,-6.51 -5.35,-4.55 -3.09,-13.03 -0.99,-18.58 6.39,-6.28 15.75,-6.32 24.05,-7.31 2.09,3.09 2.12,8.09 5.86,9.92 8.69,5.11 18.35,8.24 27.96,11.1 0.42,-4.92 2.38,-9.47 4.26,-13.97 2.62,0.17 5.24,0.37 7.86,0.62 -2.82,4.65 -6.31,8.9 -8.44,13.96 22.65,2.42 45.83,4.6 68.29,-0.44 12.26,-2.08 23.75,-6.92 35.24,-11.47 1.8,-4.19 2.71,-10.12 7.86,-11.5 z"
       id="path41"
       style="fill:url(#linearGradient73)" />
    <path
       fill="#ffffff"
       opacity="1"
       d="m 617.7,562.92 c 1.63,-2.76 3.29,-5.51 4.99,-8.23 -0.22,2.4 -0.43,4.81 -0.64,7.23 -1.46,0.33 -2.9,0.67 -4.35,1 z"
       id="path42"
       style="fill:url(#linearGradient73)" />
    <path
       fill="#ffffff"
       opacity="1"
       d="m 532.44,555.42 c 2.3,1.14 4.57,2.33 6.83,3.57 -1.18,4.23 -0.53,9.95 -4.9,12.44 -2.21,-4.98 -3.37,-10.65 -1.93,-16.01 z"
       id="path43"
       style="fill:url(#linearGradient73)" />
    <path
       fill="#ffffff"
       opacity="1"
       d="m 631.25,559.03 c 1.44,-1 3.3,1.45 1.52,2.27 -1.5,0.97 -3.33,-1.41 -1.52,-2.27 z"
       id="path44"
       style="fill:url(#linearGradient73)" />
    <path
       fill="#ffffff"
       opacity="1"
       d="m 249.11,568.74 c 2.4,1.9 4.43,4.21 5.95,6.89 -2.53,0.58 -5.08,1.13 -7.63,1.63 0.42,-2.87 0.99,-5.71 1.68,-8.52 z"
       id="path45"
       style="fill:url(#linearGradient73)" />
    <path
       fill="#ffffff"
       opacity="1"
       d="m 923,586 c 1.32,-0.01 2.66,-0.01 4,0 -0.01,1.33 -0.01,2.66 0,4 -1.34,-0.01 -2.68,-0.01 -4,0 -0.01,-1.34 -0.01,-2.67 0,-4 z"
       id="path46"
       style="fill:url(#linearGradient73)" />
    <path
       fill="#ffffff"
       opacity="1"
       d="m 439.12,592.53 c 3.93,0.78 -2.3,3.43 0,0 z"
       id="path47"
       style="fill:url(#linearGradient73)" />
    <path
       fill="#ffffff"
       opacity="1"
       d="m 799.96,591.93 c 1.32,0.68 2.64,1.37 3.98,2.07 0.02,0.88 0.08,2.66 0.11,3.55 -2.13,-0.02 -4.25,-0.1 -6.37,-0.17 0.74,-1.83 1.51,-3.64 2.28,-5.45 z"
       id="path48"
       style="fill:url(#linearGradient73)" />
    <path
       fill="#ffffff"
       opacity="1"
       d="m 579.03,597.47 c 0.83,3.66 0.95,7.42 1.12,11.17 -1.98,-1.77 -3.85,-3.65 -5.7,-5.53 1.49,-1.91 3.01,-3.8 4.58,-5.64 z"
       id="path49"
       style="fill:url(#linearGradient73)" />
    <path
       fill="#ffffff"
       opacity="1"
       d="m 873.42,598.65 c 1.94,-0.03 5.82,-0.08 7.76,-0.1 -0.75,2.59 -1.65,5.14 -2.59,7.67 -2.54,-1.9 -4.33,-4.52 -5.17,-7.57 z"
       id="path50"
       style="fill:url(#linearGradient73)" />
    <path
       fill="#ffffff"
       opacity="1"
       d="m 353.41,600.46 c 4.48,-0.33 9.41,-1.48 13.72,0.38 12.19,6 15.64,24.64 6.15,34.45 -7.93,8.54 -23.75,7.33 -30.04,-2.54 -7.67,-10.49 -4.56,-30.19 10.17,-32.29 m 3.73,25.67 c 3.33,-2.77 4.67,-7 3.78,-11.4 -4.52,2.23 -5.46,6.95 -3.78,11.4 z"
       id="path51"
       style="fill:url(#linearGradient73)" />
    <path
       fill="#ffffff"
       opacity="1"
       d="m 663.44,600.59 c 5.3,-0.58 11.18,-1.65 16.22,0.77 6.37,3.36 10.76,9.96 12,16.99 0.92,9.79 -5.7,21.11 -16.1,22.12 -9.7,2.53 -21.38,-2.8 -24.5,-12.58 -3.51,-10.32 0.63,-24.81 12.38,-27.3 m 3.93,16.49 c 0.14,2.73 0.46,5.45 0.99,8.14 0.84,-0.19 2.53,-0.56 3.37,-0.75 -0.25,-2.55 -0.36,-4.96 -0.57,-7.45 -0.95,0.02 -2.84,0.05 -3.79,0.06 z"
       id="path52"
       style="fill:url(#linearGradient73)" />
    <path
       fill="#ffffff"
       opacity="1"
       d="m 432.9,607.35 c 1.1,-3.68 3.77,-6.35 7.45,-7.45 0.43,5.4 -2.05,7.88 -7.45,7.45 z"
       id="path53"
       style="fill:url(#linearGradient73)" />
    <path
       fill="#ffffff"
       opacity="1"
       d="m 257,606 c 0.5,0 1.5,0 2,0 0,1.66 0,3.32 0,5 -0.5,0 -1.5,0 -2,0 -0.01,-1.68 -0.01,-3.34 0,-5 z"
       id="path54"
       style="fill:url(#linearGradient73)" />
    <path
       fill="#ffffff"
       opacity="1"
       d="m 539.89,612.04 c 1.38,-0.77 2.75,-1.54 4.15,-2.29 -0.35,1.77 -0.72,3.55 -1.08,5.33 -0.61,-0.15 -1.84,-0.45 -2.45,-0.6 -0.15,-0.61 -0.46,-1.83 -0.62,-2.44 z"
       id="path55"
       style="fill:url(#linearGradient73)" />
    <path
       fill="#ffffff"
       opacity="1"
       d="m 728.03,627 c -0.37,-2.73 3.43,-2.71 5.1,-3.88 0.09,2.58 0.09,5.17 0,7.76 -1.67,-1.19 -5.47,-1.15 -5.1,-3.88 z"
       id="path56"
       style="fill:url(#linearGradient73)" />
    <path
       fill="#ffffff"
       opacity="1"
       d="m 315.16,631.69 c 1.27,0.76 2.53,1.53 3.8,2.32 -0.38,0.94 -0.76,1.89 -1.13,2.85 -0.71,0.05 -2.14,0.15 -2.85,0.2 0.05,-1.8 0.11,-3.59 0.18,-5.37 z"
       id="path57"
       style="fill:url(#linearGradient73)" />
    <path
       fill="#ffffff"
       opacity="1"
       d="m 191.97,651.97 c 0.72,0.05 2.15,0.13 2.86,0.18 0.76,1.65 1.53,3.29 2.28,4.96 -1.66,-0.75 -3.31,-1.52 -4.96,-2.28 -0.05,-0.71 -0.13,-2.14 -0.18,-2.86 z"
       id="path58"
       style="fill:url(#linearGradient73)" />
    <path
       fill="#ffffff"
       opacity="1"
       d="m 235.41,664.37 c 7.93,-2.19 17.54,5.29 16.67,13.65 1.55,8.17 -7.07,15.88 -15.07,14.03 -12.55,-2.62 -15.01,-24.52 -1.6,-27.68 z"
       id="path59"
       style="fill:url(#linearGradient73)" />
    <path
       fill="#ffffff"
       opacity="1"
       d="m 504.15,670.55 c 0.41,-2.38 0.92,-4.62 1.42,-6.92 0.56,2.26 1.06,4.54 1.51,6.84 -0.73,0.02 -2.2,0.06 -2.93,0.08 z"
       id="path60"
       style="fill:url(#linearGradient73)" />
    <path
       fill="#ffffff"
       opacity="1"
       d="m 786.41,664.39 c 13.06,-3.7 23.2,14.27 16.8,24.85 -3.22,4.22 -9.63,2.53 -14.1,2.72 -6.61,-4.38 -12.19,-13.61 -8.75,-21.63 1.05,-2.7 3.18,-5.15 6.05,-5.94 z"
       id="path61"
       style="fill:url(#linearGradient73)" />
    <path
       fill="#ffffff"
       opacity="1"
       d="m 215.12,675.53 c 3.93,0.78 -2.3,3.43 0,0 z"
       id="path62"
       style="fill:url(#linearGradient73)" />
    <path
       fill="#ffffff"
       opacity="1"
       d="m 591.09,682.23 c 1.81,0.47 0.58,3.24 -1.01,2.72 -1.84,-0.51 -0.6,-3.23 1.01,-2.72 z"
       id="path63"
       style="fill:url(#linearGradient73)" />
    <path
       fill="#ffffff"
       opacity="1"
       d="m 606.32,692.18 c 0.99,-1.49 3.52,0.17 2.36,1.64 -1.01,1.47 -3.53,-0.19 -2.36,-1.64 z"
       id="path64"
       style="fill:url(#linearGradient73)" />
    <path
       fill="#ffffff"
       opacity="1"
       d="m 354.31,702.48 c 1.26,-0.2 2.52,-0.4 3.79,-0.58 -0.2,1.26 -0.39,2.52 -0.58,3.79 -1.05,-0.03 -2.1,-0.06 -3.14,-0.07 -0.03,-1.06 -0.05,-2.1 -0.07,-3.14 z"
       id="path65"
       style="fill:url(#linearGradient73)" />
    <path
       fill="#ffffff"
       opacity="1"
       d="m 712.11,719.22 c -1.28,-3.74 -0.05,-7.35 2.58,-10.16 1.07,3.2 2.18,6.44 3.06,9.72 -1.89,0.14 -3.77,0.29 -5.64,0.44 z"
       id="path66"
       style="fill:url(#linearGradient73)" />
    <path
       fill="#ffffff"
       opacity="1"
       d="m 445.33,717.48 c 0.72,-0.16 2.17,-0.49 2.89,-0.65 0.76,1.97 1.5,3.94 2.19,5.95 -1.79,0.48 -3.58,0.97 -5.37,1.45 0.07,-1.68 0.22,-5.06 0.29,-6.75 z"
       id="path67"
       style="fill:url(#linearGradient73)" />
    <path
       fill="#ffffff"
       opacity="1"
       d="m 652.9,717.88 c 1.3,0.21 2.61,0.43 3.92,0.66 -0.27,1.5 -0.55,3.01 -0.83,4.52 -0.65,-0.14 -1.95,-0.41 -2.6,-0.55 -0.18,-1.55 -0.34,-3.1 -0.49,-4.63 z"
       id="path68"
       style="fill:url(#linearGradient73)" />
    <path
       fill="#ffffff"
       opacity="1"
       d="m 428.87,732 c 1.83,-0.65 3.67,-1.28 5.51,-1.89 -0.75,1.68 -1.53,3.36 -2.31,5.04 -0.64,-0.16 -1.93,-0.49 -2.57,-0.66 -0.16,-0.62 -0.47,-1.87 -0.63,-2.49 z"
       id="path69"
       style="fill:url(#linearGradient73)" />
    <path
       fill="#ffffff"
       opacity="1"
       d="m 848.11,749.42 c 1.19,1.72 2.35,3.47 3.47,5.26 -1.92,0.29 -3.81,0.59 -5.72,0.87 0.67,-2.08 1.44,-4.11 2.25,-6.13 z"
       id="path70"
       style="fill:url(#linearGradient73)" />
    <path
       fill="#ffffff"
       opacity="1"
       d="m 405.47,770.53 c 0.62,-0.17 1.85,-0.5 2.46,-0.67 0.03,1.38 0.06,2.77 0.1,4.16 -0.8,-0.02 -2.38,-0.06 -3.18,-0.09 0.2,-1.14 0.41,-2.28 0.62,-3.4 z"
       id="path71"
       style="fill:url(#linearGradient73)" />
    <path
       fill="#ffffff"
       opacity="1"
       d="m 199.06,796.99 c 1.37,-0.71 2.73,-1.42 4.1,-2.11 0.79,1.81 1.56,3.62 2.31,5.46 -2.17,0.1 -4.34,0.17 -6.51,0.23 0.02,-0.9 0.08,-2.68 0.1,-3.58 z"
       id="path72"
       style="fill:url(#linearGradient73)" />
    <path
       fill="#ffffff"
       opacity="1"
       d="m 172.45,802.45 c 1.16,-0.2 2.33,-0.4 3.5,-0.58 0.02,1.37 0.05,2.76 0.07,4.15 -1.39,-0.03 -2.77,-0.06 -4.15,-0.07 0.19,-1.18 0.38,-2.34 0.58,-3.5 z"
       id="path73"
       style="fill:url(#linearGradient73)" />
  </g>
</svg>
