<?xml version="1.0" encoding="UTF-8" ?>
<!DOCTYPE svg PUBLIC "-//W3C//DTD SVG 1.1//EN" "http://www.w3.org/Graphics/SVG/1.1/DTD/svg11.dtd">
<svg width="1024pt" height="1024pt" viewBox="0 0 1024 1024" version="1.1" xmlns="http://www.w3.org/2000/svg">
<g id="#000000fe">
<path fill="#000000" opacity="1.00" d=" M 378.00 51.01 C 418.78 23.85 468.01 9.58 517.01 10.91 C 596.16 11.49 672.99 54.81 716.05 120.96 C 741.66 158.90 755.84 204.28 757.14 249.99 C 703.76 250.04 650.39 249.96 597.01 250.01 C 596.98 264.00 596.98 278.00 597.01 291.99 C 650.34 292.03 703.66 291.96 756.99 292.01 C 757.01 315.00 757.02 338.00 757.00 360.99 C 703.67 361.03 650.34 360.96 597.01 361.01 C 596.98 375.00 596.98 389.00 597.01 402.99 C 650.33 403.03 703.66 402.96 756.99 403.01 C 757.01 425.67 757.02 448.33 756.99 470.99 C 703.77 471.18 650.54 470.68 597.32 471.22 C 596.87 485.47 596.94 499.73 597.01 513.99 C 650.41 514.03 703.80 513.96 757.21 514.01 C 755.76 576.34 728.79 637.68 684.30 681.30 C 662.85 703.59 636.37 720.56 608.26 733.21 C 548.06 759.13 477.33 759.88 417.00 734.00 C 357.36 709.40 308.97 659.80 284.92 600.05 C 273.70 572.79 267.80 543.44 266.85 514.01 C 320.23 513.96 373.61 514.04 426.98 513.99 C 427.05 499.76 427.11 485.53 426.76 471.31 C 373.51 470.57 320.26 471.22 267.01 470.99 C 266.98 448.33 266.98 425.67 267.01 403.01 C 320.33 402.97 373.66 403.03 426.99 402.99 C 427.02 388.99 427.02 375.00 426.99 361.01 C 373.66 360.97 320.33 361.03 267.01 360.99 C 266.99 337.99 266.98 315.00 267.00 292.01 C 320.33 291.97 373.66 292.04 426.99 291.99 C 427.02 277.99 427.02 264.00 426.99 250.01 C 373.59 249.97 320.19 250.04 266.79 249.99 C 268.28 170.77 311.75 94.16 378.00 51.01 Z" />
<path fill="#000000" opacity="1.00" d=" M 169.01 271.01 C 183.01 270.98 197.00 270.98 210.99 271.01 C 211.03 351.01 210.95 431.01 211.02 511.01 C 211.26 555.85 221.63 600.57 241.08 640.97 C 274.21 709.80 334.54 765.22 406.33 791.54 C 473.40 816.74 549.65 817.32 616.71 791.75 C 684.68 766.54 742.59 715.65 776.84 651.80 C 800.89 607.96 812.64 557.90 812.95 508.01 C 813.09 429.01 812.93 350.01 813.01 271.00 C 827.00 270.97 840.99 270.98 854.99 271.01 C 855.02 344.34 854.98 417.67 855.01 491.00 C 854.94 509.28 855.57 527.61 853.73 545.83 C 846.90 611.69 820.50 675.36 778.72 726.73 C 735.72 780.43 675.85 820.31 609.94 839.87 C 585.09 847.62 559.18 851.19 533.33 853.52 C 532.59 893.33 533.17 933.16 533.01 972.99 C 582.34 973.03 631.66 972.96 681.00 973.01 C 681.02 987.00 681.01 1000.99 680.99 1014.99 C 568.33 1015.00 455.67 1015.01 343.00 1014.99 C 342.97 1000.99 342.98 986.99 343.01 973.01 C 392.34 972.97 441.66 973.03 490.99 972.99 C 490.86 933.16 491.31 893.32 490.78 853.49 C 418.73 849.19 348.34 821.37 292.99 775.01 C 216.47 712.39 169.42 614.99 168.96 516.00 C 169.06 434.34 168.96 352.68 169.01 271.01 Z" />
</g>
</svg>
