<?xml version="1.0" encoding="UTF-8" standalone="no"?>
<svg
   width="15.999999pt"
   height="23.999996pt"
   viewBox="0 0 15.999999 23.999996"
   version="1.1"
   id="svg2"
   sodipodi:docname="speak-16x24.svg"
   inkscape:version="1.3 (0e150ed6c4, 2023-07-21)"
   xmlns:inkscape="http://www.inkscape.org/namespaces/inkscape"
   xmlns:sodipodi="http://sodipodi.sourceforge.net/DTD/sodipodi-0.dtd"
   xmlns="http://www.w3.org/2000/svg"
   xmlns:svg="http://www.w3.org/2000/svg">
  <defs
     id="defs2" />
  <sodipodi:namedview
     id="namedview2"
     pagecolor="#ffffff"
     bordercolor="#999999"
     borderopacity="1"
     inkscape:showpageshadow="2"
     inkscape:pageopacity="0"
     inkscape:pagecheckerboard="0"
     inkscape:deskcolor="#d1d1d1"
     inkscape:document-units="pt"
     showgrid="false"
     inkscape:zoom="19.007813"
     inkscape:cx="8.3649815"
     inkscape:cy="16.440608"
     inkscape:window-width="1920"
     inkscape:window-height="1056"
     inkscape:window-x="-8"
     inkscape:window-y="-8"
     inkscape:window-maximized="1"
     inkscape:current-layer="svg2" />
  <g
     id="#000000fe"
     transform="matrix(0.02332023,0,0,0.02390017,-3.9401861,-0.25871326)">
    <path
       fill="#000000"
       opacity="1"
       d="m 378,51.01 c 40.78,-27.16 90.01,-41.43 139.01,-40.1 79.15,0.58 155.98,43.9 199.04,110.05 25.61,37.94 39.79,83.32 41.09,129.03 -53.38,0.05 -106.75,-0.03 -160.13,0.02 -0.03,13.99 -0.03,27.99 0,41.98 53.33,0.04 106.65,-0.03 159.98,0.02 0.02,22.99 0.03,45.99 0.01,68.98 -53.33,0.04 -106.66,-0.03 -159.99,0.02 -0.03,13.99 -0.03,27.99 0,41.98 53.32,0.04 106.65,-0.03 159.98,0.02 0.02,22.66 0.03,45.32 0,67.98 -53.22,0.19 -106.45,-0.31 -159.67,0.23 -0.45,14.25 -0.38,28.51 -0.31,42.77 53.4,0.04 106.79,-0.03 160.2,0.02 -1.45,62.33 -28.42,123.67 -72.91,167.29 -21.45,22.29 -47.93,39.26 -76.04,51.91 C 548.06,759.13 477.33,759.88 417,734 357.36,709.4 308.97,659.8 284.92,600.05 273.7,572.79 267.8,543.44 266.85,514.01 c 53.38,-0.05 106.76,0.03 160.13,-0.02 0.07,-14.23 0.13,-28.46 -0.22,-42.68 -53.25,-0.74 -106.5,-0.09 -159.75,-0.32 -0.03,-22.66 -0.03,-45.32 0,-67.98 53.32,-0.04 106.65,0.02 159.98,-0.02 0.03,-14 0.03,-27.99 0,-41.98 -53.33,-0.04 -106.66,0.02 -159.98,-0.02 -0.02,-23 -0.03,-45.99 -0.01,-68.98 53.33,-0.04 106.66,0.03 159.99,-0.02 0.03,-14 0.03,-27.99 0,-41.98 -53.4,-0.04 -106.8,0.03 -160.2,-0.02 C 268.28,170.77 311.75,94.16 378,51.01 Z"
       id="path1" />
    <path
       fill="#000000"
       opacity="1"
       d="m 169.01,271.01 c 14,-0.03 27.99,-0.03 41.98,0 0.04,80 -0.04,160 0.03,240 0.24,44.84 10.61,89.56 30.06,129.96 33.13,68.83 93.46,124.25 165.25,150.57 67.07,25.2 143.32,25.78 210.38,0.21 67.97,-25.21 125.88,-76.1 160.13,-139.95 24.05,-43.84 35.8,-93.9 36.11,-143.79 0.14,-79 -0.02,-158 0.06,-237.01 13.99,-0.03 27.98,-0.02 41.98,0.01 0.03,73.33 -0.01,146.66 0.02,219.99 -0.07,18.28 0.56,36.61 -1.28,54.83 -6.83,65.86 -33.23,129.53 -75.01,180.9 -43,53.7 -102.87,93.58 -168.78,113.14 -24.85,7.75 -50.76,11.32 -76.61,13.65 -0.74,39.81 -0.16,79.64 -0.32,119.47 49.33,0.04 98.65,-0.03 147.99,0.02 0.02,13.99 0.01,27.98 -0.01,41.98 -112.66,0.01 -225.32,0.02 -337.99,0 -0.03,-14 -0.02,-28 0.01,-41.98 49.33,-0.04 98.65,0.02 147.98,-0.02 -0.13,-39.83 0.32,-79.67 -0.21,-119.5 C 418.73,849.19 348.34,821.37 292.99,775.01 216.47,712.39 169.42,614.99 168.96,516 c 0.1,-81.66 0,-163.32 0.05,-244.99 z"
       id="path2" />
  </g>
</svg>
