<?xml version="1.0" encoding="UTF-8" standalone="no"?>
<!-- Created with Inkscape (http://www.inkscape.org/) -->

<svg
   width="15.999997mm"
   height="16mm"
   viewBox="0 0 15.999998 16"
   version="1.1"
   id="svg1"
   xml:space="preserve"
   inkscape:version="1.3 (0e150ed6c4, 2023-07-21)"
   sodipodi:docname="wave-16x16.svg"
   xmlns:inkscape="http://www.inkscape.org/namespaces/inkscape"
   xmlns:sodipodi="http://sodipodi.sourceforge.net/DTD/sodipodi-0.dtd"
   xmlns="http://www.w3.org/2000/svg"
   xmlns:svg="http://www.w3.org/2000/svg"><sodipodi:namedview
     id="namedview1"
     pagecolor="#ffffff"
     bordercolor="#999999"
     borderopacity="1"
     inkscape:showpageshadow="2"
     inkscape:pageopacity="0"
     inkscape:pagecheckerboard="0"
     inkscape:deskcolor="#d1d1d1"
     inkscape:document-units="mm"
     inkscape:zoom="5.7798541"
     inkscape:cx="43.426702"
     inkscape:cy="52.163947"
     inkscape:window-width="1920"
     inkscape:window-height="1056"
     inkscape:window-x="-8"
     inkscape:window-y="-8"
     inkscape:window-maximized="1"
     inkscape:current-layer="layer1" /><defs
     id="defs1" /><g
     inkscape:label="图层 1"
     inkscape:groupmode="layer"
     id="layer1"
     transform="translate(-126.80411,-116.35509)"
     style="display:inline;opacity:1"><g
       id="g1"
       transform="matrix(0.02209781,0,0,0.0433493,124.83805,104.81563)"
       style="display:inline;image-rendering:auto"><g
         id="#ffffffff" /><g
         id="#040404ff"><path
           fill="#040404"
           opacity="1"
           d="m 494.34,266.52 c 12.28,-1.91 24.37,4.89 31.94,14.21 10.81,13.32 15.96,30.08 20.49,46.37 8.49,35.78 11.33,72.52 16.21,108.9 2.76,26.53 6.17,53.23 14.33,78.73 2.36,1.45 6.65,2.65 7.75,-0.7 7.09,-13.03 10.13,-27.82 13.8,-42.1 5.63,-22.69 9.33,-46.8 22.38,-66.71 5.49,-8.29 14.37,-15.2 24.68,-15.46 11.97,-2.43 23.92,3.92 31.88,12.43 16.2,19.36 19.89,45.85 35.49,65.56 3.7,4.45 8.89,7.58 14.74,8.19 28.3,0.18 56.62,-0.06 84.93,0.1 0.05,12.3 0.12,24.62 -0.01,36.93 -29.99,0.04 -59.98,0.08 -89.96,-0.02 -17.22,-1.02 -32.33,-12.13 -42.23,-25.72 -11.02,-15.8 -17.75,-34.03 -25.55,-51.46 -1.55,-3.17 -6.27,-4.08 -7.86,-0.47 -8.92,25.4 -12.13,52.43 -21.21,77.78 -6.09,17.07 -15.1,34.5 -31.92,43.12 -8.31,3.53 -18.11,4.78 -26.88,2.38 -4.5,-3.13 -10.57,-4.46 -13.26,-9.64 -14.3,-18.52 -18.44,-42.37 -22.29,-64.87 -6.04,-37.41 -8.64,-75.28 -14.11,-112.79 -3.64,-19.62 -6.7,-39.66 -15,-57.98 -1.14,-1.14 -2.05,-2.89 -3.68,-3.29 -2.26,0.82 -4.96,2.27 -5.05,4.98 -6.34,16.95 -9.65,35.08 -12,53.02 -5.58,34.07 -6.75,68.63 -10.16,102.91 -2.83,36.27 -5.33,72.8 -13.46,108.38 -3.8,15.63 -8.22,31.82 -18.26,44.76 -7.57,10.21 -21.94,13.61 -33.77,9.58 -7.63,-2.67 -13.14,-8.71 -18.53,-14.41 -12.28,-17.18 -17.72,-37.84 -23.1,-57.93 -8.3,-35.64 -12.94,-71.97 -21.15,-107.66 -2.57,-10.22 -4.78,-20.59 -8.8,-30.37 -1.48,-1.54 -2.96,-4.11 -5.5,-3.12 -2.45,1.96 -3.15,5.1 -4.11,7.93 -7.06,19.2 -9.69,39.6 -13.47,59.59 -3.92,20.81 -7.22,41.89 -13.99,62.03 -4.39,12.15 -9.89,24.44 -19.94,33.01 -5.09,3.06 -10.35,6.82 -16.63,6.53 -14.51,2.96 -28.91,-5.74 -36.96,-17.4 -12.46,-18.08 -16.96,-39.97 -24.66,-60.18 -4.3,-10.84 -8.31,-22.88 -18.65,-29.48 -4.05,-3.52 -9.98,-1.81 -14.8,-3.11 -25.66,-0.23 -51.32,0.07 -76.98,-0.12 -0.04,-12.31 -0.12,-24.62 0.02,-36.92 26.65,-0.09 53.3,0.01 79.96,-0.04 7.66,0.28 15.68,0.01 22.79,3.36 15.34,5.35 25.96,18.55 33.65,32.27 8.85,16.45 14,34.53 19.95,52.16 2.79,5.59 3.42,12.4 7.81,17.1 l 4.71,0.13 c 4.83,-7.37 6.04,-16.12 8.59,-24.36 6.07,-25.55 9.02,-51.73 15.01,-77.29 4.02,-18.47 9.06,-37.23 19.82,-53.04 4.8,-7.62 12.67,-12.78 21,-15.85 3.91,-0.36 7.76,-1.17 11.68,-1.43 9.02,1.08 17.51,5.58 23.24,12.7 10.05,13.59 15.79,29.76 20.05,45.98 9.8,38.12 13.86,77.41 23.14,115.64 2.02,11.94 6.14,23.41 10.52,34.65 0.94,2.51 3.4,3.57 5.96,2.98 2.82,-3.97 3.15,-8.84 4.53,-13.35 15.57,-79.43 12.18,-161.25 28.61,-240.58 4.2,-18.04 9.11,-36.64 20.26,-51.78 5.29,-8.07 14.28,-14.1 24.01,-14.76 z"
           id="path1" /></g></g></g></svg>
