<?xml version="1.0" encoding="UTF-8" ?>
<!DOCTYPE svg PUBLIC "-//W3C//DTD SVG 1.1//EN" "http://www.w3.org/Graphics/SVG/1.1/DTD/svg11.dtd">
<svg width="1280pt" height="701pt" viewBox="0 0 1280 701" version="1.1" xmlns="http://www.w3.org/2000/svg">
<g id="#f4f0e9ff">
</g>
<g id="#312e2bff">
<path fill="#312e2b" opacity="1.00" d=" M 621.44 34.55 C 654.51 32.57 687.66 41.01 717.00 56.01 C 768.63 83.29 807.37 132.95 822.80 189.11 C 841.03 259.08 829.88 333.30 806.58 400.69 C 792.55 440.91 774.29 479.68 751.94 515.95 C 729.77 552.29 708.37 589.13 684.20 624.20 C 669.58 645.77 651.88 666.45 627.97 677.94 C 597.61 693.99 557.89 692.92 530.17 671.83 C 510.83 657.17 501.57 633.53 495.21 610.88 C 491.62 595.29 486.49 579.95 484.96 563.97 C 484.59 561.43 486.79 557.79 489.66 559.34 C 493.83 562.10 494.66 567.58 496.08 571.97 C 501.57 592.05 507.17 612.35 517.35 630.66 C 525.61 645.20 540.44 654.69 555.89 660.14 C 569.99 664.15 585.35 666.91 599.71 662.49 C 622.92 656.93 638.30 636.98 651.59 618.62 C 692.34 556.90 729.32 492.07 754.23 422.21 C 768.20 384.20 778.48 344.77 783.45 304.55 C 787.98 267.32 788.45 229.23 780.58 192.40 C 775.87 170.62 766.72 149.64 753.01 131.99 C 717.00 83.88 654.66 57.03 594.95 63.90 C 569.28 67.48 544.20 77.50 524.38 94.40 C 497.22 116.58 479.50 148.95 471.84 182.89 C 468.96 194.94 467.73 207.29 465.46 219.44 C 464.19 225.02 461.99 234.07 454.11 231.88 C 448.46 231.15 447.89 223.40 448.16 219.06 C 450.62 182.20 459.04 145.01 477.89 112.92 C 491.16 90.93 509.76 71.81 532.39 59.43 C 559.71 44.61 590.39 36.08 621.44 34.55 Z" />
<path fill="#312e2b" opacity="1.00" d=" M 562.97 125.01 C 600.72 97.72 655.25 99.58 692.98 126.04 C 716.13 141.55 733.14 165.07 743.17 190.87 C 748.48 204.53 753.12 218.74 753.95 233.47 C 734.00 206.92 717.64 176.76 691.20 155.80 C 662.26 134.58 620.71 133.77 590.16 152.12 C 565.99 166.62 552.24 193.98 549.55 221.43 C 548.58 234.52 548.48 247.75 550.31 260.77 C 563.71 257.77 577.85 256.72 591.16 260.76 C 608.47 265.69 624.75 274.11 639.20 284.81 C 658.76 299.29 675.11 319.50 681.46 343.30 C 683.33 349.60 683.62 356.48 681.62 362.79 C 678.42 352.62 676.23 341.86 670.05 332.96 C 654.64 312.17 631.93 297.79 607.69 289.43 C 594.69 285.14 580.67 282.00 566.99 283.96 C 559.85 284.06 559.79 292.23 562.05 296.99 C 567.62 308.71 576.93 317.99 585.27 327.74 C 593.06 336.88 602.85 345.24 606.29 357.22 C 595.14 353.75 585.83 346.33 576.80 339.20 C 566.54 330.88 555.93 322.72 547.68 312.30 C 530.63 290.08 520.30 262.87 518.12 234.97 C 513.26 194.06 528.86 149.53 562.97 125.01 Z" />
<path fill="#312e2b" opacity="1.00" d=" M 620.68 170.68 C 628.80 163.40 641.19 165.16 650.22 169.72 C 676.72 181.71 697.05 204.80 708.97 231.01 C 722.29 258.31 725.05 289.89 720.64 319.68 C 717.08 341.00 711.74 362.22 702.93 382.02 C 701.90 385.13 698.98 386.77 696.40 388.41 C 696.70 384.65 697.01 380.88 698.19 377.29 C 707.01 351.61 710.38 324.02 707.97 296.98 C 704.90 268.84 694.58 240.83 675.19 219.80 C 663.63 207.99 648.89 198.11 631.96 196.84 C 619.81 196.44 611.95 179.69 620.68 170.68 Z" />
<path fill="#312e2b" opacity="1.00" d=" M 411.51 303.34 C 412.16 300.52 414.65 297.96 417.74 299.15 C 421.03 301.63 420.71 306.16 421.31 309.83 C 424.18 350.79 427.34 391.73 430.41 432.68 C 430.63 437.90 430.98 443.18 430.46 448.41 C 428.29 450.37 423.54 450.25 423.60 446.56 C 420.12 413.66 419.36 380.48 415.51 347.61 C 409.45 396.65 405.54 445.94 399.91 495.03 C 399.47 497.56 398.09 501.21 395.00 501.04 C 391.33 501.07 389.66 496.36 389.74 493.40 C 383.94 445.85 380.15 398.04 373.51 350.60 C 368.54 391.68 364.69 432.89 360.10 474.02 C 359.33 478.37 359.31 483.19 356.89 487.07 C 351.29 489.76 349.27 484.57 348.60 480.57 C 342.09 436.95 336.57 393.17 329.32 349.68 C 323.11 389.47 318.92 429.57 313.58 469.48 C 313.23 473.50 311.92 478.24 307.93 480.11 C 303.99 479.89 302.06 476.03 301.43 472.62 C 293.49 433.72 287.02 394.51 278.57 355.71 C 271.53 390.14 266.21 424.89 259.47 459.38 C 258.60 462.82 257.40 467.94 253.00 468.06 C 249.00 468.00 247.58 463.52 246.66 460.35 C 239.33 428.87 233.78 396.96 225.74 365.64 C 218.91 392.95 213.96 420.72 206.78 447.94 C 206.87 451.87 202.79 455.76 198.96 454.13 C 194.35 452.62 194.52 446.72 193.02 443.01 C 187.54 421.22 182.88 399.22 177.10 377.49 C 170.57 393.90 167.06 411.31 160.66 427.75 C 158.85 433.48 150.58 436.56 146.34 431.65 C 134.49 419.98 126.18 405.28 114.70 393.28 C 111.66 390.17 108.10 387.01 103.58 386.57 C 80.41 384.86 57.16 386.84 33.97 385.90 C 30.15 386.45 30.56 380.00 28.77 378.59 C 50.04 375.55 71.61 377.42 93.01 376.91 C 102.91 376.35 113.35 379.42 120.41 386.59 C 131.75 399.17 140.81 413.67 152.64 425.83 C 159.99 405.19 164.79 383.70 172.90 363.33 C 176.22 363.91 180.95 362.60 182.56 366.37 C 190.08 389.61 193.79 413.88 200.59 437.34 C 207.60 410.45 212.72 383.11 219.11 356.08 C 220.06 352.36 221.83 348.01 226.00 347.07 C 229.89 347.90 231.78 351.84 232.55 355.39 C 239.44 386.00 245.38 416.83 252.67 447.35 C 260.08 412.19 265.36 376.61 272.35 341.37 C 273.07 337.48 275.51 332.08 280.72 334.10 C 282.82 335.98 283.91 338.70 284.55 341.39 C 292.14 378.65 298.31 416.23 306.60 453.35 C 311.99 416.36 316.16 379.18 321.11 342.12 C 322.33 335.11 321.86 327.52 325.01 320.98 C 326.39 317.64 330.53 319.21 333.27 319.19 C 340.41 363.85 345.76 408.80 353.25 453.40 C 358.68 412.38 362.25 371.12 366.82 329.99 C 367.95 323.72 366.96 316.31 371.19 311.02 C 378.04 308.21 378.57 317.04 379.11 321.01 C 384.11 367.46 388.73 413.97 394.62 460.32 C 401.39 408.14 405.13 355.55 411.51 303.34 Z" />
<path fill="#312e2b" opacity="1.00" d=" M 858.33 310.52 C 858.97 306.87 858.68 300.51 863.10 299.03 C 867.99 297.87 868.86 304.86 869.07 308.01 C 874.61 358.77 879.04 409.67 885.30 460.34 C 891.17 412.67 895.68 364.83 901.24 317.12 C 902.00 313.72 903.86 308.57 908.79 311.05 C 911.76 313.84 911.49 318.32 912.14 321.98 C 915.50 354.47 918.96 386.95 922.48 419.42 C 923.73 430.72 924.45 442.11 926.57 453.31 C 934.04 408.72 939.03 363.73 946.77 319.19 C 949.07 319.05 951.45 318.56 953.72 319.21 C 956.90 321.73 956.24 326.52 957.19 329.98 C 961.20 363.70 965.76 397.35 969.94 431.05 C 970.87 438.52 971.66 446.05 973.47 453.38 C 981.15 417.59 987.43 381.50 994.49 345.58 C 995.38 341.59 996.06 337.00 999.28 334.09 C 1003.87 332.26 1006.82 336.72 1007.46 340.42 C 1014.36 376.02 1019.63 411.95 1027.26 447.41 C 1034.59 416.87 1040.58 386.03 1047.45 355.39 C 1048.22 351.86 1050.08 347.88 1054.00 347.09 C 1058.54 347.93 1059.96 353.01 1061.13 356.84 C 1067.26 383.65 1072.71 410.62 1079.38 437.30 C 1085.20 416.34 1089.65 395.05 1094.84 373.94 C 1095.84 370.71 1096.20 366.51 1099.21 364.32 C 1101.68 363.42 1104.50 363.66 1107.13 363.32 C 1114.75 383.31 1120.30 404.01 1126.67 424.42 C 1127.21 424.59 1128.29 424.94 1128.83 425.12 C 1137.67 414.16 1146.24 403.00 1154.95 391.95 C 1160.52 384.46 1168.75 378.09 1178.40 377.56 C 1196.56 376.26 1214.80 377.25 1233.00 376.85 C 1238.56 377.28 1245.15 375.58 1250.05 379.16 C 1252.56 383.96 1246.69 387.05 1243.01 385.90 C 1221.34 386.65 1199.65 385.28 1178.00 386.18 C 1172.26 386.70 1167.45 390.59 1163.78 394.75 C 1153.70 406.43 1145.16 419.37 1134.78 430.79 C 1132.48 433.35 1128.71 434.87 1125.30 433.72 C 1120.79 431.91 1118.54 427.13 1117.35 422.74 C 1112.41 407.69 1108.64 392.26 1102.89 377.49 C 1096.71 400.52 1092.17 423.97 1085.88 446.97 C 1085.66 450.87 1082.16 455.55 1077.86 454.28 C 1073.24 453.31 1073.52 447.32 1072.04 443.94 C 1065.82 417.90 1060.59 391.64 1054.25 365.64 C 1046.22 397.51 1040.56 429.97 1032.87 461.92 C 1032.22 466.23 1027.24 470.29 1023.39 466.63 C 1019.75 459.16 1019.13 450.63 1017.49 442.58 C 1012.23 413.61 1007.57 384.50 1001.41 355.71 C 993.63 393.18 986.88 430.86 979.52 468.42 C 978.54 472.73 977.81 479.67 972.07 480.11 C 968.24 478.40 967.02 473.84 966.84 470.03 C 961.40 429.91 957.26 389.57 950.94 349.57 C 944.23 391.11 938.73 432.84 932.57 474.47 C 931.91 478.56 930.95 482.61 929.77 486.58 C 927.97 486.73 924.37 487.03 922.57 487.17 C 915.07 441.96 913.04 395.97 906.44 350.60 C 901.64 388.86 897.97 427.27 893.60 465.59 C 892.22 476.25 892.19 487.14 889.48 497.59 C 889.15 501.07 883.35 502.48 881.75 499.25 C 880.23 496.86 880.15 493.83 879.68 491.16 C 874.49 443.34 870.43 395.38 864.63 347.62 C 861.62 377.85 860.02 408.19 857.69 438.47 C 857.15 441.88 857.28 445.60 855.69 448.78 C 853.57 449.40 851.33 449.27 849.16 449.31 C 848.65 435.83 850.31 422.42 851.14 408.99 C 853.61 376.17 855.96 343.34 858.33 310.52 Z" />
<path fill="#312e2b" opacity="1.00" d=" M 531.05 331.57 C 540.09 333.86 543.74 343.39 549.02 350.00 C 559.54 364.86 572.33 381.21 591.30 384.77 C 606.46 388.18 621.74 391.12 636.65 395.55 C 626.66 402.94 613.78 402.35 601.99 402.06 C 591.19 402.09 580.58 399.87 570.04 397.79 C 571.69 409.05 572.69 420.74 568.67 431.70 C 562.04 449.81 548.00 463.65 537.42 479.40 C 535.39 482.45 533.98 487.01 537.17 489.83 C 542.64 494.40 550.27 492.25 555.43 488.48 C 570.85 477.37 581.66 461.34 595.85 448.87 C 603.33 442.82 612.75 438.15 622.65 439.42 C 638.00 441.58 651.19 451.87 666.97 451.94 C 674.97 451.27 679.56 443.59 684.24 437.95 C 680.01 447.59 673.88 457.48 663.93 461.95 C 651.82 466.28 641.89 456.21 630.91 453.27 C 622.61 449.85 613.70 452.98 606.81 457.83 C 593.49 467.84 585.32 482.97 572.49 493.53 C 563.21 501.19 553.17 509.20 540.86 510.85 C 529.82 511.73 518.56 505.07 513.94 495.04 C 511.54 488.96 512.35 482.22 514.04 476.10 C 520.22 456.53 536.75 442.00 541.89 421.99 C 545.42 409.25 541.02 396.54 537.57 384.37 C 534.25 372.98 528.35 362.41 526.43 350.63 C 525.90 343.96 528.69 337.62 531.05 331.57 Z" />
</g>
</svg>
