<?xml version="1.0" encoding="UTF-8" standalone="no"?>
<svg
   width="519.13312pt"
   height="366.58984pt"
   viewBox="0 0 519.13311 366.58984"
   version="1.1"
   id="svg6"
   sodipodi:docname="whisper-512.svg"
   inkscape:version="1.3 (0e150ed6c4, 2023-07-21)"
   inkscape:export-filename="Fasterwhisper.png"
   inkscape:export-xdpi="96"
   inkscape:export-ydpi="96"
   xmlns:inkscape="http://www.inkscape.org/namespaces/inkscape"
   xmlns:sodipodi="http://sodipodi.sourceforge.net/DTD/sodipodi-0.dtd"
   xmlns="http://www.w3.org/2000/svg"
   xmlns:svg="http://www.w3.org/2000/svg">
  <defs
     id="defs6" />
  <sodipodi:namedview
     id="namedview6"
     pagecolor="#ffffff"
     bordercolor="#999999"
     borderopacity="1"
     inkscape:showpageshadow="2"
     inkscape:pageopacity="0"
     inkscape:pagecheckerboard="0"
     inkscape:deskcolor="#d1d1d1"
     inkscape:document-units="pt"
     inkscape:zoom="0.75703125"
     inkscape:cx="377.79154"
     inkscape:cy="301.83695"
     inkscape:window-width="1920"
     inkscape:window-height="1056"
     inkscape:window-x="-8"
     inkscape:window-y="-8"
     inkscape:window-maximized="1"
     inkscape:current-layer="svg6"
     inkscape:export-bgcolor="#ffffffff" />
  <g
     id="#f4f0e9ff"
     transform="translate(-33.94285,79.205533)" />
  <g
     id="#312e2bff"
     transform="matrix(0.37885993,0,0,0.37885993,8.9878926,95.097623)">
    <path
       fill="#312e2b"
       opacity="1"
       d="m 621.44,34.55 c 33.07,-1.98 66.22,6.46 95.56,21.46 51.63,27.28 90.37,76.94 105.8,133.1 18.23,69.97 7.08,144.19 -16.22,211.58 -14.03,40.22 -32.29,78.99 -54.64,115.26 -22.17,36.34 -43.57,73.18 -67.74,108.25 -14.62,21.57 -32.32,42.25 -56.23,53.74 -30.36,16.05 -70.08,14.98 -97.8,-6.11 -19.34,-14.66 -28.6,-38.3 -34.96,-60.95 -3.59,-15.59 -8.72,-30.93 -10.25,-46.91 -0.37,-2.54 1.83,-6.18 4.7,-4.63 4.17,2.76 5,8.24 6.42,12.63 5.49,20.08 11.09,40.38 21.27,58.69 8.26,14.54 23.09,24.03 38.54,29.48 14.1,4.01 29.46,6.77 43.82,2.35 23.21,-5.56 38.59,-25.51 51.88,-43.87 40.75,-61.72 77.73,-126.55 102.64,-196.41 13.97,-38.01 24.25,-77.44 29.22,-117.66 4.53,-37.23 5,-75.32 -2.87,-112.15 -4.71,-21.78 -13.86,-42.76 -27.57,-60.41 C 717,83.88 654.66,57.03 594.95,63.9 c -25.67,3.58 -50.75,13.6 -70.57,30.5 -27.16,22.18 -44.88,54.55 -52.54,88.49 -2.88,12.05 -4.11,24.4 -6.38,36.55 -1.27,5.58 -3.47,14.63 -11.35,12.44 -5.65,-0.73 -6.22,-8.48 -5.95,-12.82 2.46,-36.86 10.88,-74.05 29.73,-106.14 13.27,-21.99 31.87,-41.11 54.5,-53.49 27.32,-14.82 58,-23.35 89.05,-24.88 z"
       id="path1" />
    <path
       fill="#312e2b"
       opacity="1"
       d="m 562.97,125.01 c 37.75,-27.29 92.28,-25.43 130.01,1.03 23.15,15.51 40.16,39.03 50.19,64.83 5.31,13.66 9.95,27.87 10.78,42.6 C 734,206.92 717.64,176.76 691.2,155.8 c -28.94,-21.22 -70.49,-22.03 -101.04,-3.68 -24.17,14.5 -37.92,41.86 -40.61,69.31 -0.97,13.09 -1.07,26.32 0.76,39.34 13.4,-3 27.54,-4.05 40.85,-0.01 17.31,4.93 33.59,13.35 48.04,24.05 19.56,14.48 35.91,34.69 42.26,58.49 1.87,6.3 2.16,13.18 0.16,19.49 -3.2,-10.17 -5.39,-20.93 -11.57,-29.83 -15.41,-20.79 -38.12,-35.17 -62.36,-43.53 -13,-4.29 -27.02,-7.43 -40.7,-5.47 -7.14,0.1 -7.2,8.27 -4.94,13.03 5.57,11.72 14.88,21 23.22,30.75 7.79,9.14 17.58,17.5 21.02,29.48 -11.15,-3.47 -20.46,-10.89 -29.49,-18.02 -10.26,-8.32 -20.87,-16.48 -29.12,-26.9 -17.05,-22.22 -27.38,-49.43 -29.56,-77.33 -4.86,-40.91 10.74,-85.44 44.85,-109.96 z"
       id="path2" />
    <path
       fill="#312e2b"
       opacity="1"
       d="m 620.68,170.68 c 8.12,-7.28 20.51,-5.52 29.54,-0.96 26.5,11.99 46.83,35.08 58.75,61.29 13.32,27.3 16.08,58.88 11.67,88.67 -3.56,21.32 -8.9,42.54 -17.71,62.34 -1.03,3.11 -3.95,4.75 -6.53,6.39 0.3,-3.76 0.61,-7.53 1.79,-11.12 8.82,-25.68 12.19,-53.27 9.78,-80.31 -3.07,-28.14 -13.39,-56.15 -32.78,-77.18 -11.56,-11.81 -26.3,-21.69 -43.23,-22.96 -12.15,-0.4 -20.01,-17.15 -11.28,-26.16 z"
       id="path3" />
    <path
       fill="#312e2b"
       opacity="1"
       d="m 411.51,303.34 c 0.65,-2.82 3.14,-5.38 6.23,-4.19 3.29,2.48 2.97,7.01 3.57,10.68 2.87,40.96 6.03,81.9 9.1,122.85 0.22,5.22 0.57,10.5 0.05,15.73 -2.17,1.96 -6.92,1.84 -6.86,-1.85 -3.48,-32.9 -4.24,-66.08 -8.09,-98.95 -6.06,49.04 -9.97,98.33 -15.6,147.42 -0.44,2.53 -1.82,6.18 -4.91,6.01 -3.67,0.03 -5.34,-4.68 -5.26,-7.64 -5.8,-47.55 -9.59,-95.36 -16.23,-142.8 -4.97,41.08 -8.82,82.29 -13.41,123.42 -0.77,4.35 -0.79,9.17 -3.21,13.05 -5.6,2.69 -7.62,-2.5 -8.29,-6.5 -6.51,-43.62 -12.03,-87.4 -19.28,-130.89 -6.21,39.79 -10.4,79.89 -15.74,119.8 -0.35,4.02 -1.66,8.76 -5.65,10.63 -3.94,-0.22 -5.87,-4.08 -6.5,-7.49 -7.94,-38.9 -14.41,-78.11 -22.86,-116.91 -7.04,34.43 -12.36,69.18 -19.1,103.67 -0.87,3.44 -2.07,8.56 -6.47,8.68 -4,-0.06 -5.42,-4.54 -6.34,-7.71 -7.33,-31.48 -12.88,-63.39 -20.92,-94.71 -6.83,27.31 -11.78,55.08 -18.96,82.3 0.09,3.93 -3.99,7.82 -7.82,6.19 -4.61,-1.51 -4.44,-7.41 -5.94,-11.12 -5.48,-21.79 -10.14,-43.79 -15.92,-65.52 -6.53,16.41 -10.04,33.82 -16.44,50.26 -1.81,5.73 -10.08,8.81 -14.32,3.9 -11.85,-11.67 -20.16,-26.37 -31.64,-38.37 -3.04,-3.11 -6.6,-6.27 -11.12,-6.71 -23.17,-1.71 -46.42,0.27 -69.61,-0.67 -3.82,0.55 -3.41,-5.9 -5.2,-7.31 21.27,-3.04 42.84,-1.17 64.24,-1.68 9.9,-0.56 20.34,2.51 27.4,9.68 11.34,12.58 20.4,27.08 32.23,39.24 7.35,-20.64 12.15,-42.13 20.26,-62.5 3.32,0.58 8.05,-0.73 9.66,3.04 7.52,23.24 11.23,47.51 18.03,70.97 7.01,-26.89 12.13,-54.23 18.52,-81.26 0.95,-3.72 2.72,-8.07 6.89,-9.01 3.89,0.83 5.78,4.77 6.55,8.32 6.89,30.61 12.83,61.44 20.12,91.96 7.41,-35.16 12.69,-70.74 19.68,-105.98 0.72,-3.89 3.16,-9.29 8.37,-7.27 2.1,1.88 3.19,4.6 3.83,7.29 7.59,37.26 13.76,74.84 22.05,111.96 5.39,-36.99 9.56,-74.17 14.51,-111.23 1.22,-7.01 0.75,-14.6 3.9,-21.14 1.38,-3.34 5.52,-1.77 8.26,-1.79 7.14,44.66 12.49,89.61 19.98,134.21 5.43,-41.02 9,-82.28 13.57,-123.41 1.13,-6.27 0.14,-13.68 4.37,-18.97 6.85,-2.81 7.38,6.02 7.92,9.99 5,46.45 9.62,92.96 15.51,139.31 6.77,-52.18 10.51,-104.77 16.89,-156.98 z"
       id="path4" />
    <path
       fill="#312e2b"
       opacity="1"
       d="m 858.33,310.52 c 0.64,-3.65 0.35,-10.01 4.77,-11.49 4.89,-1.16 5.76,5.83 5.97,8.98 5.54,50.76 9.97,101.66 16.23,152.33 5.87,-47.67 10.38,-95.51 15.94,-143.22 0.76,-3.4 2.62,-8.55 7.55,-6.07 2.97,2.79 2.7,7.27 3.35,10.93 3.36,32.49 6.82,64.97 10.34,97.44 1.25,11.3 1.97,22.69 4.09,33.89 7.47,-44.59 12.46,-89.58 20.2,-134.12 2.3,-0.14 4.68,-0.63 6.95,0.02 3.18,2.52 2.52,7.31 3.47,10.77 4.01,33.72 8.57,67.37 12.75,101.07 0.93,7.47 1.72,15 3.53,22.33 7.68,-35.79 13.96,-71.88 21.02,-107.8 0.89,-3.99 1.57,-8.58 4.79,-11.49 4.59,-1.83 7.54,2.63 8.18,6.33 6.9,35.6 12.17,71.53 19.8,106.99 7.33,-30.54 13.32,-61.38 20.19,-92.02 0.77,-3.53 2.63,-7.51 6.55,-8.3 4.54,0.84 5.96,5.92 7.13,9.75 6.13,26.81 11.58,53.78 18.25,80.46 5.82,-20.96 10.27,-42.25 15.46,-63.36 1,-3.23 1.36,-7.43 4.37,-9.62 2.47,-0.9 5.29,-0.66 7.92,-1 7.62,19.99 13.17,40.69 19.54,61.1 0.54,0.17 1.62,0.52 2.16,0.7 8.84,-10.96 17.41,-22.12 26.12,-33.17 5.57,-7.49 13.8,-13.86 23.45,-14.39 18.16,-1.3 36.4,-0.31 54.6,-0.71 5.56,0.43 12.15,-1.27 17.05,2.31 2.51,4.8 -3.36,7.89 -7.04,6.74 -21.67,0.75 -43.36,-0.62 -65.01,0.28 -5.74,0.52 -10.55,4.41 -14.22,8.57 -10.08,11.68 -18.62,24.62 -29,36.04 -2.3,2.56 -6.07,4.08 -9.48,2.93 -4.51,-1.81 -6.76,-6.59 -7.95,-10.98 -4.94,-15.05 -8.71,-30.48 -14.46,-45.25 -6.18,23.03 -10.72,46.48 -17.01,69.48 -0.22,3.9 -3.72,8.58 -8.02,7.31 -4.62,-0.97 -4.34,-6.96 -5.82,-10.34 -6.22,-26.04 -11.45,-52.3 -17.79,-78.3 -8.03,31.87 -13.69,64.33 -21.38,96.28 -0.65,4.31 -5.63,8.37 -9.48,4.71 -3.64,-7.47 -4.26,-16 -5.9,-24.05 -5.26,-28.97 -9.92,-58.08 -16.08,-86.87 -7.78,37.47 -14.53,75.15 -21.89,112.71 -0.98,4.31 -1.71,11.25 -7.45,11.69 -3.83,-1.71 -5.05,-6.27 -5.23,-10.08 -5.44,-40.12 -9.58,-80.46 -15.9,-120.46 -6.71,41.54 -12.21,83.27 -18.37,124.9 -0.66,4.09 -1.62,8.14 -2.8,12.11 -1.8,0.15 -5.4,0.45 -7.2,0.59 -7.5,-45.21 -9.53,-91.2 -16.13,-136.57 -4.8,38.26 -8.47,76.67 -12.84,114.99 -1.38,10.66 -1.41,21.55 -4.12,32 -0.33,3.48 -6.13,4.89 -7.73,1.66 -1.52,-2.39 -1.6,-5.42 -2.07,-8.09 -5.19,-47.82 -9.25,-95.78 -15.05,-143.54 -3.01,30.23 -4.61,60.57 -6.94,90.85 -0.54,3.41 -0.41,7.13 -2,10.31 -2.12,0.62 -4.36,0.49 -6.53,0.53 -0.51,-13.48 1.15,-26.89 1.98,-40.32 2.47,-32.82 4.82,-65.65 7.19,-98.47 z"
       id="path5" />
    <path
       fill="#312e2b"
       opacity="1"
       d="m 531.05,331.57 c 9.04,2.29 12.69,11.82 17.97,18.43 10.52,14.86 23.31,31.21 42.28,34.77 15.16,3.41 30.44,6.35 45.35,10.78 -9.99,7.39 -22.87,6.8 -34.66,6.51 -10.8,0.03 -21.41,-2.19 -31.95,-4.27 1.65,11.26 2.65,22.95 -1.37,33.91 -6.63,18.11 -20.67,31.95 -31.25,47.7 -2.03,3.05 -3.44,7.61 -0.25,10.43 5.47,4.57 13.1,2.42 18.26,-1.35 15.42,-11.11 26.23,-27.14 40.42,-39.61 7.48,-6.05 16.9,-10.72 26.8,-9.45 15.35,2.16 28.54,12.45 44.32,12.52 8,-0.67 12.59,-8.35 17.27,-13.99 -4.23,9.64 -10.36,19.53 -20.31,24 -12.11,4.33 -22.04,-5.74 -33.02,-8.68 -8.3,-3.42 -17.21,-0.29 -24.1,4.56 -13.32,10.01 -21.49,25.14 -34.32,35.7 -9.28,7.66 -19.32,15.67 -31.63,17.32 -11.04,0.88 -22.3,-5.78 -26.92,-15.81 -2.4,-6.08 -1.59,-12.82 0.1,-18.94 6.18,-19.57 22.71,-34.1 27.85,-54.11 3.53,-12.74 -0.87,-25.45 -4.32,-37.62 -3.32,-11.39 -9.22,-21.96 -11.14,-33.74 -0.53,-6.67 2.26,-13.01 4.62,-19.06 z"
       id="path6" />
  </g>
  <text
     xml:space="preserve"
     style="font-style:normal;font-variant:normal;font-weight:normal;font-stretch:normal;font-size:99.4562px;font-family:'Smiley Sans';-inkscape-font-specification:'Smiley Sans';fill:#000000;stroke-width:0.678111"
     x="2.86883"
     y="80.559525"
     id="text6"><tspan
       sodipodi:role="line"
       id="tspan6"
       style="font-style:normal;font-variant:normal;font-weight:normal;font-stretch:normal;font-size:99.4562px;font-family:'Smiley Sans';-inkscape-font-specification:'Smiley Sans';stroke-width:0.678111"
       x="2.86883"
       y="80.559525">FasterWhisper</tspan></text>
  <path
     sodipodi:type="star"
     style="fill:#000000;stroke-width:0.75"
     id="path11"
     inkscape:flatsided="false"
     sodipodi:sides="5"
     sodipodi:cx="53.498451"
     sodipodi:cy="117.89473"
     sodipodi:r1="7.9873762"
     sodipodi:r2="3.9936881"
     sodipodi:arg1="2.0899424"
     sodipodi:arg2="2.718261"
     inkscape:rounded="0"
     inkscape:randomized="0"
     d="m 49.535603,124.82971 0.321702,-5.29437 -4.179004,-3.26647 5.134663,-1.3301 1.815217,-4.98386 2.851695,4.47233 5.300868,0.18627 -3.372218,4.09415 1.4609,5.09899 -4.93584,-1.94201 z"
     inkscape:transform-center-x="0.26892822"
     inkscape:transform-center-y="-0.50241979"
     transform="translate(3.9628483,10.499997)" />
  <path
     sodipodi:type="star"
     style="fill:#000000;stroke-width:0.75"
     id="path12"
     inkscape:flatsided="false"
     sodipodi:sides="5"
     sodipodi:cx="436.90402"
     sodipodi:cy="155.54179"
     sodipodi:r1="9.7573824"
     sodipodi:r2="4.8786912"
     sodipodi:arg1="2.7233683"
     sodipodi:arg2="3.3516869"
     inkscape:rounded="0"
     inkscape:randomized="0"
     d="m 427.98761,159.50464 4.145,-4.98031 -1.7528,-6.23796 6.01743,2.40313 5.391,-3.59465 -0.42601,6.46552 5.08462,4.01635 -6.28072,1.59278 -2.24854,6.07689 -3.45568,-5.48112 z"
     inkscape:transform-center-x="-0.31321063"
     inkscape:transform-center-y="0.62882544"
     transform="translate(3.9628483,10.499997)" />
  <path
     style="fill:#000000;stroke-width:0.75"
     d="m 0,105.15479 519.13313,-0.99071"
     id="path13" />
  <path
     sodipodi:type="star"
     style="fill:#000000;stroke-width:0.75"
     id="path14"
     inkscape:flatsided="false"
     sodipodi:sides="6"
     sodipodi:cx="402.2291"
     sodipodi:cy="379.44272"
     sodipodi:r1="11.929753"
     sodipodi:r2="5.9648767"
     sodipodi:arg1="0.84415399"
     sodipodi:arg2="1.3677528"
     inkscape:rounded="0"
     inkscape:randomized="0"
     d="m 410.15479,388.35913 -6.72287,-3.07407 -4.96181,5.47972 -0.69922,-7.35921 -7.22648,-1.5572 6.02366,-4.28515 -2.26467,-7.03691 6.72287,3.07407 4.96181,-5.47972 0.69922,7.35921 7.22648,1.5572 -6.02366,4.28514 z"
     transform="translate(-44.582044,-24.174926)" />
</svg>
